<?xml version="1.0" encoding="UTF-8" standalone="no"?>
<svg width="264.583mm" height="209.903mm"
 viewBox="0 0 750 595"
 xmlns="http://www.w3.org/2000/svg" xmlns:xlink="http://www.w3.org/1999/xlink"  version="1.2" baseProfile="tiny">
<title>Qt SVG Document</title>
<desc>Generated with Qt</desc>
<defs>
</defs>
<g fill="none" stroke="black" stroke-width="1" fill-rule="evenodd" stroke-linecap="square" stroke-linejoin="bevel" >

<g fill="none" stroke="#000000" stroke-opacity="1" stroke-width="1" stroke-linecap="square" stroke-linejoin="bevel" transform="matrix(1,0,0,1,0,0)"
font-family="Ubuntu" font-size="11" font-weight="400" font-style="normal" 
>
</g>

<g fill="none" stroke="#000000" stroke-opacity="1" stroke-width="1" stroke-linecap="square" stroke-linejoin="bevel" transform="matrix(1.00267,0,0,1.00267,0,0)"
font-family="Ubuntu" font-size="11" font-weight="400" font-style="normal" 
>
</g>

<g fill="none" stroke="#a0a0a4" stroke-opacity="1" stroke-dasharray="0.5,1" stroke-dashoffset="0" stroke-width="0.5" stroke-linecap="round" stroke-linejoin="round" transform="matrix(1.00267,0,0,1.00267,0,0)"
font-family="Ubuntu" font-size="11" font-weight="400" font-style="normal" 
>
<polyline fill="none" vector-effect="none" points="66.5,562.5 726.5,562.5 " />
</g>

<g fill="none" stroke="#000000" stroke-opacity="1" stroke-width="1" stroke-linecap="round" stroke-linejoin="round" transform="matrix(1.00267,0,0,1.00267,0,0)"
font-family="Ubuntu" font-size="11" font-weight="400" font-style="normal" 
>
<polyline fill="none" vector-effect="none" points="66.5,562.5 72.5,562.5 " />
<polyline fill="none" vector-effect="none" points="726.5,562.5 720.5,562.5 " />
</g>

<g fill="none" stroke="#000000" stroke-opacity="1" stroke-width="1" stroke-linecap="square" stroke-linejoin="bevel" transform="matrix(1.00267,0,0,1.00267,0,0)"
font-family="Ubuntu" font-size="11" font-weight="400" font-style="normal" 
>
</g>

<g fill="none" stroke="#000000" stroke-opacity="1" stroke-width="1" stroke-linecap="square" stroke-linejoin="bevel" transform="matrix(1.00267,0,0,1.00267,49.131,569.017)"
font-family="Ubuntu" font-size="11" font-weight="400" font-style="normal" 
>
</g>

<g fill="none" stroke="#000000" stroke-opacity="1" stroke-width="1" stroke-linecap="square" stroke-linejoin="bevel" transform="matrix(1.00267,0,0,1.00267,49.131,569.017)"
font-family="Ubuntu" font-size="11" font-weight="400" font-style="normal" 
>
</g>

<g fill="none" stroke="#000000" stroke-opacity="1" stroke-width="1" stroke-linecap="square" stroke-linejoin="bevel" transform="matrix(1.00267,0,0,1.00267,49.131,569.017)"
font-family="Ubuntu" font-size="11" font-weight="400" font-style="normal" 
>
</g>

<g fill="none" stroke="#000000" stroke-opacity="1" stroke-width="1" stroke-linecap="square" stroke-linejoin="bevel" transform="matrix(1.00267,0,0,1.00267,49.131,569.017)"
font-family="Ubuntu" font-size="11" font-weight="400" font-style="normal" 
>
</g>

<g fill="none" stroke="#000000" stroke-opacity="1" stroke-width="1" stroke-linecap="square" stroke-linejoin="bevel" transform="matrix(1.00267,0,0,1.00267,49.131,569.017)"
font-family="Ubuntu" font-size="11" font-weight="400" font-style="normal" 
>
</g>

<g fill="none" stroke="#000000" stroke-opacity="1" stroke-width="1" stroke-linecap="square" stroke-linejoin="bevel" transform="matrix(1.00267,0,0,1.00267,49.131,569.017)"
font-family="Sans" font-size="9" font-weight="400" font-style="normal" 
>
<text fill="#000000" fill-opacity="1" stroke="none" xml:space="preserve" x="0" y="0" font-family="Sans" font-size="9" font-weight="400" font-style="normal" 
 > 0</text>
</g>

<g fill="none" stroke="#000000" stroke-opacity="1" stroke-width="1" stroke-linecap="square" stroke-linejoin="bevel" transform="matrix(1.00267,0,0,1.00267,49.131,569.017)"
font-family="Ubuntu" font-size="11" font-weight="400" font-style="normal" 
>
</g>

<g fill="none" stroke="#000000" stroke-opacity="1" stroke-width="1" stroke-linecap="square" stroke-linejoin="bevel" transform="matrix(1.00267,0,0,1.00267,0,0)"
font-family="Ubuntu" font-size="11" font-weight="400" font-style="normal" 
>
</g>

<g fill="none" stroke="#a0a0a4" stroke-opacity="1" stroke-dasharray="0.5,1" stroke-dashoffset="0" stroke-width="0.5" stroke-linecap="round" stroke-linejoin="round" transform="matrix(1.00267,0,0,1.00267,0,0)"
font-family="Ubuntu" font-size="11" font-weight="400" font-style="normal" 
>
<polyline fill="none" vector-effect="none" points="66.5,484.5 726.5,484.5 " />
</g>

<g fill="none" stroke="#000000" stroke-opacity="1" stroke-width="1" stroke-linecap="round" stroke-linejoin="round" transform="matrix(1.00267,0,0,1.00267,0,0)"
font-family="Ubuntu" font-size="11" font-weight="400" font-style="normal" 
>
<polyline fill="none" vector-effect="none" points="66.5,484.5 72.5,484.5 " />
<polyline fill="none" vector-effect="none" points="726.5,484.5 720.5,484.5 " />
</g>

<g fill="none" stroke="#000000" stroke-opacity="1" stroke-width="1" stroke-linecap="square" stroke-linejoin="bevel" transform="matrix(1.00267,0,0,1.00267,0,0)"
font-family="Ubuntu" font-size="11" font-weight="400" font-style="normal" 
>
</g>

<g fill="none" stroke="#000000" stroke-opacity="1" stroke-width="1" stroke-linecap="square" stroke-linejoin="bevel" transform="matrix(1.00267,0,0,1.00267,17.0455,490.809)"
font-family="Ubuntu" font-size="11" font-weight="400" font-style="normal" 
>
</g>

<g fill="none" stroke="#000000" stroke-opacity="1" stroke-width="1" stroke-linecap="square" stroke-linejoin="bevel" transform="matrix(1.00267,0,0,1.00267,17.0455,490.809)"
font-family="Ubuntu" font-size="11" font-weight="400" font-style="normal" 
>
</g>

<g fill="none" stroke="#000000" stroke-opacity="1" stroke-width="1" stroke-linecap="square" stroke-linejoin="bevel" transform="matrix(1.00267,0,0,1.00267,17.0455,490.809)"
font-family="Ubuntu" font-size="11" font-weight="400" font-style="normal" 
>
</g>

<g fill="none" stroke="#000000" stroke-opacity="1" stroke-width="1" stroke-linecap="square" stroke-linejoin="bevel" transform="matrix(1.00267,0,0,1.00267,17.0455,490.809)"
font-family="Ubuntu" font-size="11" font-weight="400" font-style="normal" 
>
</g>

<g fill="none" stroke="#000000" stroke-opacity="1" stroke-width="1" stroke-linecap="square" stroke-linejoin="bevel" transform="matrix(1.00267,0,0,1.00267,17.0455,490.809)"
font-family="Ubuntu" font-size="11" font-weight="400" font-style="normal" 
>
</g>

<g fill="none" stroke="#000000" stroke-opacity="1" stroke-width="1" stroke-linecap="square" stroke-linejoin="bevel" transform="matrix(1.00267,0,0,1.00267,17.0455,490.809)"
font-family="Sans" font-size="9" font-weight="400" font-style="normal" 
>
<text fill="#000000" fill-opacity="1" stroke="none" xml:space="preserve" x="0" y="0" font-family="Sans" font-size="9" font-weight="400" font-style="normal" 
 > 20000</text>
</g>

<g fill="none" stroke="#000000" stroke-opacity="1" stroke-width="1" stroke-linecap="square" stroke-linejoin="bevel" transform="matrix(1.00267,0,0,1.00267,17.0455,490.809)"
font-family="Ubuntu" font-size="11" font-weight="400" font-style="normal" 
>
</g>

<g fill="none" stroke="#000000" stroke-opacity="1" stroke-width="1" stroke-linecap="square" stroke-linejoin="bevel" transform="matrix(1.00267,0,0,1.00267,0,0)"
font-family="Ubuntu" font-size="11" font-weight="400" font-style="normal" 
>
</g>

<g fill="none" stroke="#a0a0a4" stroke-opacity="1" stroke-dasharray="0.5,1" stroke-dashoffset="0" stroke-width="0.5" stroke-linecap="round" stroke-linejoin="round" transform="matrix(1.00267,0,0,1.00267,0,0)"
font-family="Ubuntu" font-size="11" font-weight="400" font-style="normal" 
>
<polyline fill="none" vector-effect="none" points="66.5,406.5 726.5,406.5 " />
</g>

<g fill="none" stroke="#000000" stroke-opacity="1" stroke-width="1" stroke-linecap="round" stroke-linejoin="round" transform="matrix(1.00267,0,0,1.00267,0,0)"
font-family="Ubuntu" font-size="11" font-weight="400" font-style="normal" 
>
<polyline fill="none" vector-effect="none" points="66.5,406.5 72.5,406.5 " />
<polyline fill="none" vector-effect="none" points="726.5,406.5 720.5,406.5 " />
</g>

<g fill="none" stroke="#000000" stroke-opacity="1" stroke-width="1" stroke-linecap="square" stroke-linejoin="bevel" transform="matrix(1.00267,0,0,1.00267,0,0)"
font-family="Ubuntu" font-size="11" font-weight="400" font-style="normal" 
>
</g>

<g fill="none" stroke="#000000" stroke-opacity="1" stroke-width="1" stroke-linecap="square" stroke-linejoin="bevel" transform="matrix(1.00267,0,0,1.00267,17.0455,411.598)"
font-family="Ubuntu" font-size="11" font-weight="400" font-style="normal" 
>
</g>

<g fill="none" stroke="#000000" stroke-opacity="1" stroke-width="1" stroke-linecap="square" stroke-linejoin="bevel" transform="matrix(1.00267,0,0,1.00267,17.0455,411.598)"
font-family="Ubuntu" font-size="11" font-weight="400" font-style="normal" 
>
</g>

<g fill="none" stroke="#000000" stroke-opacity="1" stroke-width="1" stroke-linecap="square" stroke-linejoin="bevel" transform="matrix(1.00267,0,0,1.00267,17.0455,411.598)"
font-family="Ubuntu" font-size="11" font-weight="400" font-style="normal" 
>
</g>

<g fill="none" stroke="#000000" stroke-opacity="1" stroke-width="1" stroke-linecap="square" stroke-linejoin="bevel" transform="matrix(1.00267,0,0,1.00267,17.0455,411.598)"
font-family="Ubuntu" font-size="11" font-weight="400" font-style="normal" 
>
</g>

<g fill="none" stroke="#000000" stroke-opacity="1" stroke-width="1" stroke-linecap="square" stroke-linejoin="bevel" transform="matrix(1.00267,0,0,1.00267,17.0455,411.598)"
font-family="Ubuntu" font-size="11" font-weight="400" font-style="normal" 
>
</g>

<g fill="none" stroke="#000000" stroke-opacity="1" stroke-width="1" stroke-linecap="square" stroke-linejoin="bevel" transform="matrix(1.00267,0,0,1.00267,17.0455,411.598)"
font-family="Sans" font-size="9" font-weight="400" font-style="normal" 
>
<text fill="#000000" fill-opacity="1" stroke="none" xml:space="preserve" x="0" y="0" font-family="Sans" font-size="9" font-weight="400" font-style="normal" 
 > 40000</text>
</g>

<g fill="none" stroke="#000000" stroke-opacity="1" stroke-width="1" stroke-linecap="square" stroke-linejoin="bevel" transform="matrix(1.00267,0,0,1.00267,17.0455,411.598)"
font-family="Ubuntu" font-size="11" font-weight="400" font-style="normal" 
>
</g>

<g fill="none" stroke="#000000" stroke-opacity="1" stroke-width="1" stroke-linecap="square" stroke-linejoin="bevel" transform="matrix(1.00267,0,0,1.00267,0,0)"
font-family="Ubuntu" font-size="11" font-weight="400" font-style="normal" 
>
</g>

<g fill="none" stroke="#a0a0a4" stroke-opacity="1" stroke-dasharray="0.5,1" stroke-dashoffset="0" stroke-width="0.5" stroke-linecap="round" stroke-linejoin="round" transform="matrix(1.00267,0,0,1.00267,0,0)"
font-family="Ubuntu" font-size="11" font-weight="400" font-style="normal" 
>
<polyline fill="none" vector-effect="none" points="66.5,328.5 726.5,328.5 " />
</g>

<g fill="none" stroke="#000000" stroke-opacity="1" stroke-width="1" stroke-linecap="round" stroke-linejoin="round" transform="matrix(1.00267,0,0,1.00267,0,0)"
font-family="Ubuntu" font-size="11" font-weight="400" font-style="normal" 
>
<polyline fill="none" vector-effect="none" points="66.5,328.5 72.5,328.5 " />
<polyline fill="none" vector-effect="none" points="726.5,328.5 720.5,328.5 " />
</g>

<g fill="none" stroke="#000000" stroke-opacity="1" stroke-width="1" stroke-linecap="square" stroke-linejoin="bevel" transform="matrix(1.00267,0,0,1.00267,0,0)"
font-family="Ubuntu" font-size="11" font-weight="400" font-style="normal" 
>
</g>

<g fill="none" stroke="#000000" stroke-opacity="1" stroke-width="1" stroke-linecap="square" stroke-linejoin="bevel" transform="matrix(1.00267,0,0,1.00267,17.0455,333.389)"
font-family="Ubuntu" font-size="11" font-weight="400" font-style="normal" 
>
</g>

<g fill="none" stroke="#000000" stroke-opacity="1" stroke-width="1" stroke-linecap="square" stroke-linejoin="bevel" transform="matrix(1.00267,0,0,1.00267,17.0455,333.389)"
font-family="Ubuntu" font-size="11" font-weight="400" font-style="normal" 
>
</g>

<g fill="none" stroke="#000000" stroke-opacity="1" stroke-width="1" stroke-linecap="square" stroke-linejoin="bevel" transform="matrix(1.00267,0,0,1.00267,17.0455,333.389)"
font-family="Ubuntu" font-size="11" font-weight="400" font-style="normal" 
>
</g>

<g fill="none" stroke="#000000" stroke-opacity="1" stroke-width="1" stroke-linecap="square" stroke-linejoin="bevel" transform="matrix(1.00267,0,0,1.00267,17.0455,333.389)"
font-family="Ubuntu" font-size="11" font-weight="400" font-style="normal" 
>
</g>

<g fill="none" stroke="#000000" stroke-opacity="1" stroke-width="1" stroke-linecap="square" stroke-linejoin="bevel" transform="matrix(1.00267,0,0,1.00267,17.0455,333.389)"
font-family="Ubuntu" font-size="11" font-weight="400" font-style="normal" 
>
</g>

<g fill="none" stroke="#000000" stroke-opacity="1" stroke-width="1" stroke-linecap="square" stroke-linejoin="bevel" transform="matrix(1.00267,0,0,1.00267,17.0455,333.389)"
font-family="Sans" font-size="9" font-weight="400" font-style="normal" 
>
<text fill="#000000" fill-opacity="1" stroke="none" xml:space="preserve" x="0" y="0" font-family="Sans" font-size="9" font-weight="400" font-style="normal" 
 > 60000</text>
</g>

<g fill="none" stroke="#000000" stroke-opacity="1" stroke-width="1" stroke-linecap="square" stroke-linejoin="bevel" transform="matrix(1.00267,0,0,1.00267,17.0455,333.389)"
font-family="Ubuntu" font-size="11" font-weight="400" font-style="normal" 
>
</g>

<g fill="none" stroke="#000000" stroke-opacity="1" stroke-width="1" stroke-linecap="square" stroke-linejoin="bevel" transform="matrix(1.00267,0,0,1.00267,0,0)"
font-family="Ubuntu" font-size="11" font-weight="400" font-style="normal" 
>
</g>

<g fill="none" stroke="#a0a0a4" stroke-opacity="1" stroke-dasharray="0.5,1" stroke-dashoffset="0" stroke-width="0.5" stroke-linecap="round" stroke-linejoin="round" transform="matrix(1.00267,0,0,1.00267,0,0)"
font-family="Ubuntu" font-size="11" font-weight="400" font-style="normal" 
>
<polyline fill="none" vector-effect="none" points="66.5,249.5 726.5,249.5 " />
</g>

<g fill="none" stroke="#000000" stroke-opacity="1" stroke-width="1" stroke-linecap="round" stroke-linejoin="round" transform="matrix(1.00267,0,0,1.00267,0,0)"
font-family="Ubuntu" font-size="11" font-weight="400" font-style="normal" 
>
<polyline fill="none" vector-effect="none" points="66.5,249.5 72.5,249.5 " />
<polyline fill="none" vector-effect="none" points="726.5,249.5 720.5,249.5 " />
</g>

<g fill="none" stroke="#000000" stroke-opacity="1" stroke-width="1" stroke-linecap="square" stroke-linejoin="bevel" transform="matrix(1.00267,0,0,1.00267,0,0)"
font-family="Ubuntu" font-size="11" font-weight="400" font-style="normal" 
>
</g>

<g fill="none" stroke="#000000" stroke-opacity="1" stroke-width="1" stroke-linecap="square" stroke-linejoin="bevel" transform="matrix(1.00267,0,0,1.00267,17.0455,255.18)"
font-family="Ubuntu" font-size="11" font-weight="400" font-style="normal" 
>
</g>

<g fill="none" stroke="#000000" stroke-opacity="1" stroke-width="1" stroke-linecap="square" stroke-linejoin="bevel" transform="matrix(1.00267,0,0,1.00267,17.0455,255.18)"
font-family="Ubuntu" font-size="11" font-weight="400" font-style="normal" 
>
</g>

<g fill="none" stroke="#000000" stroke-opacity="1" stroke-width="1" stroke-linecap="square" stroke-linejoin="bevel" transform="matrix(1.00267,0,0,1.00267,17.0455,255.18)"
font-family="Ubuntu" font-size="11" font-weight="400" font-style="normal" 
>
</g>

<g fill="none" stroke="#000000" stroke-opacity="1" stroke-width="1" stroke-linecap="square" stroke-linejoin="bevel" transform="matrix(1.00267,0,0,1.00267,17.0455,255.18)"
font-family="Ubuntu" font-size="11" font-weight="400" font-style="normal" 
>
</g>

<g fill="none" stroke="#000000" stroke-opacity="1" stroke-width="1" stroke-linecap="square" stroke-linejoin="bevel" transform="matrix(1.00267,0,0,1.00267,17.0455,255.18)"
font-family="Ubuntu" font-size="11" font-weight="400" font-style="normal" 
>
</g>

<g fill="none" stroke="#000000" stroke-opacity="1" stroke-width="1" stroke-linecap="square" stroke-linejoin="bevel" transform="matrix(1.00267,0,0,1.00267,17.0455,255.18)"
font-family="Sans" font-size="9" font-weight="400" font-style="normal" 
>
<text fill="#000000" fill-opacity="1" stroke="none" xml:space="preserve" x="0" y="0" font-family="Sans" font-size="9" font-weight="400" font-style="normal" 
 > 80000</text>
</g>

<g fill="none" stroke="#000000" stroke-opacity="1" stroke-width="1" stroke-linecap="square" stroke-linejoin="bevel" transform="matrix(1.00267,0,0,1.00267,17.0455,255.18)"
font-family="Ubuntu" font-size="11" font-weight="400" font-style="normal" 
>
</g>

<g fill="none" stroke="#000000" stroke-opacity="1" stroke-width="1" stroke-linecap="square" stroke-linejoin="bevel" transform="matrix(1.00267,0,0,1.00267,0,0)"
font-family="Ubuntu" font-size="11" font-weight="400" font-style="normal" 
>
</g>

<g fill="none" stroke="#a0a0a4" stroke-opacity="1" stroke-dasharray="0.5,1" stroke-dashoffset="0" stroke-width="0.5" stroke-linecap="round" stroke-linejoin="round" transform="matrix(1.00267,0,0,1.00267,0,0)"
font-family="Ubuntu" font-size="11" font-weight="400" font-style="normal" 
>
<polyline fill="none" vector-effect="none" points="66.5,171.5 726.5,171.5 " />
</g>

<g fill="none" stroke="#000000" stroke-opacity="1" stroke-width="1" stroke-linecap="round" stroke-linejoin="round" transform="matrix(1.00267,0,0,1.00267,0,0)"
font-family="Ubuntu" font-size="11" font-weight="400" font-style="normal" 
>
<polyline fill="none" vector-effect="none" points="66.5,171.5 72.5,171.5 " />
<polyline fill="none" vector-effect="none" points="726.5,171.5 720.5,171.5 " />
</g>

<g fill="none" stroke="#000000" stroke-opacity="1" stroke-width="1" stroke-linecap="square" stroke-linejoin="bevel" transform="matrix(1.00267,0,0,1.00267,0,0)"
font-family="Ubuntu" font-size="11" font-weight="400" font-style="normal" 
>
</g>

<g fill="none" stroke="#000000" stroke-opacity="1" stroke-width="1" stroke-linecap="square" stroke-linejoin="bevel" transform="matrix(1.00267,0,0,1.00267,9.02406,176.972)"
font-family="Ubuntu" font-size="11" font-weight="400" font-style="normal" 
>
</g>

<g fill="none" stroke="#000000" stroke-opacity="1" stroke-width="1" stroke-linecap="square" stroke-linejoin="bevel" transform="matrix(1.00267,0,0,1.00267,9.02406,176.972)"
font-family="Ubuntu" font-size="11" font-weight="400" font-style="normal" 
>
</g>

<g fill="none" stroke="#000000" stroke-opacity="1" stroke-width="1" stroke-linecap="square" stroke-linejoin="bevel" transform="matrix(1.00267,0,0,1.00267,9.02406,176.972)"
font-family="Ubuntu" font-size="11" font-weight="400" font-style="normal" 
>
</g>

<g fill="none" stroke="#000000" stroke-opacity="1" stroke-width="1" stroke-linecap="square" stroke-linejoin="bevel" transform="matrix(1.00267,0,0,1.00267,9.02406,176.972)"
font-family="Ubuntu" font-size="11" font-weight="400" font-style="normal" 
>
</g>

<g fill="none" stroke="#000000" stroke-opacity="1" stroke-width="1" stroke-linecap="square" stroke-linejoin="bevel" transform="matrix(1.00267,0,0,1.00267,9.02406,176.972)"
font-family="Ubuntu" font-size="11" font-weight="400" font-style="normal" 
>
</g>

<g fill="none" stroke="#000000" stroke-opacity="1" stroke-width="1" stroke-linecap="square" stroke-linejoin="bevel" transform="matrix(1.00267,0,0,1.00267,9.02406,176.972)"
font-family="Sans" font-size="9" font-weight="400" font-style="normal" 
>
<text fill="#000000" fill-opacity="1" stroke="none" xml:space="preserve" x="0" y="0" font-family="Sans" font-size="9" font-weight="400" font-style="normal" 
 > 100000</text>
</g>

<g fill="none" stroke="#000000" stroke-opacity="1" stroke-width="1" stroke-linecap="square" stroke-linejoin="bevel" transform="matrix(1.00267,0,0,1.00267,9.02406,176.972)"
font-family="Ubuntu" font-size="11" font-weight="400" font-style="normal" 
>
</g>

<g fill="none" stroke="#000000" stroke-opacity="1" stroke-width="1" stroke-linecap="square" stroke-linejoin="bevel" transform="matrix(1.00267,0,0,1.00267,0,0)"
font-family="Ubuntu" font-size="11" font-weight="400" font-style="normal" 
>
</g>

<g fill="none" stroke="#a0a0a4" stroke-opacity="1" stroke-dasharray="0.5,1" stroke-dashoffset="0" stroke-width="0.5" stroke-linecap="round" stroke-linejoin="round" transform="matrix(1.00267,0,0,1.00267,0,0)"
font-family="Ubuntu" font-size="11" font-weight="400" font-style="normal" 
>
<polyline fill="none" vector-effect="none" points="66.5,93.5 726.5,93.5 " />
</g>

<g fill="none" stroke="#000000" stroke-opacity="1" stroke-width="1" stroke-linecap="round" stroke-linejoin="round" transform="matrix(1.00267,0,0,1.00267,0,0)"
font-family="Ubuntu" font-size="11" font-weight="400" font-style="normal" 
>
<polyline fill="none" vector-effect="none" points="66.5,93.5 72.5,93.5 " />
<polyline fill="none" vector-effect="none" points="726.5,93.5 720.5,93.5 " />
</g>

<g fill="none" stroke="#000000" stroke-opacity="1" stroke-width="1" stroke-linecap="square" stroke-linejoin="bevel" transform="matrix(1.00267,0,0,1.00267,0,0)"
font-family="Ubuntu" font-size="11" font-weight="400" font-style="normal" 
>
</g>

<g fill="none" stroke="#000000" stroke-opacity="1" stroke-width="1" stroke-linecap="square" stroke-linejoin="bevel" transform="matrix(1.00267,0,0,1.00267,9.02406,97.7607)"
font-family="Ubuntu" font-size="11" font-weight="400" font-style="normal" 
>
</g>

<g fill="none" stroke="#000000" stroke-opacity="1" stroke-width="1" stroke-linecap="square" stroke-linejoin="bevel" transform="matrix(1.00267,0,0,1.00267,9.02406,97.7607)"
font-family="Ubuntu" font-size="11" font-weight="400" font-style="normal" 
>
</g>

<g fill="none" stroke="#000000" stroke-opacity="1" stroke-width="1" stroke-linecap="square" stroke-linejoin="bevel" transform="matrix(1.00267,0,0,1.00267,9.02406,97.7607)"
font-family="Ubuntu" font-size="11" font-weight="400" font-style="normal" 
>
</g>

<g fill="none" stroke="#000000" stroke-opacity="1" stroke-width="1" stroke-linecap="square" stroke-linejoin="bevel" transform="matrix(1.00267,0,0,1.00267,9.02406,97.7607)"
font-family="Ubuntu" font-size="11" font-weight="400" font-style="normal" 
>
</g>

<g fill="none" stroke="#000000" stroke-opacity="1" stroke-width="1" stroke-linecap="square" stroke-linejoin="bevel" transform="matrix(1.00267,0,0,1.00267,9.02406,97.7607)"
font-family="Ubuntu" font-size="11" font-weight="400" font-style="normal" 
>
</g>

<g fill="none" stroke="#000000" stroke-opacity="1" stroke-width="1" stroke-linecap="square" stroke-linejoin="bevel" transform="matrix(1.00267,0,0,1.00267,9.02406,97.7607)"
font-family="Sans" font-size="9" font-weight="400" font-style="normal" 
>
<text fill="#000000" fill-opacity="1" stroke="none" xml:space="preserve" x="0" y="0" font-family="Sans" font-size="9" font-weight="400" font-style="normal" 
 > 120000</text>
</g>

<g fill="none" stroke="#000000" stroke-opacity="1" stroke-width="1" stroke-linecap="square" stroke-linejoin="bevel" transform="matrix(1.00267,0,0,1.00267,9.02406,97.7607)"
font-family="Ubuntu" font-size="11" font-weight="400" font-style="normal" 
>
</g>

<g fill="none" stroke="#000000" stroke-opacity="1" stroke-width="1" stroke-linecap="square" stroke-linejoin="bevel" transform="matrix(1.00267,0,0,1.00267,0,0)"
font-family="Ubuntu" font-size="11" font-weight="400" font-style="normal" 
>
</g>

<g fill="none" stroke="#a0a0a4" stroke-opacity="1" stroke-dasharray="0.5,1" stroke-dashoffset="0" stroke-width="0.5" stroke-linecap="round" stroke-linejoin="round" transform="matrix(1.00267,0,0,1.00267,0,0)"
font-family="Ubuntu" font-size="11" font-weight="400" font-style="normal" 
>
<polyline fill="none" vector-effect="none" points="66.5,15.5 726.5,15.5 " />
</g>

<g fill="none" stroke="#000000" stroke-opacity="1" stroke-width="1" stroke-linecap="round" stroke-linejoin="round" transform="matrix(1.00267,0,0,1.00267,0,0)"
font-family="Ubuntu" font-size="11" font-weight="400" font-style="normal" 
>
<polyline fill="none" vector-effect="none" points="66.5,15.5 72.5,15.5 " />
<polyline fill="none" vector-effect="none" points="726.5,15.5 720.5,15.5 " />
</g>

<g fill="none" stroke="#000000" stroke-opacity="1" stroke-width="1" stroke-linecap="square" stroke-linejoin="bevel" transform="matrix(1.00267,0,0,1.00267,0,0)"
font-family="Ubuntu" font-size="11" font-weight="400" font-style="normal" 
>
</g>

<g fill="none" stroke="#000000" stroke-opacity="1" stroke-width="1" stroke-linecap="square" stroke-linejoin="bevel" transform="matrix(1.00267,0,0,1.00267,9.02406,19.5521)"
font-family="Ubuntu" font-size="11" font-weight="400" font-style="normal" 
>
</g>

<g fill="none" stroke="#000000" stroke-opacity="1" stroke-width="1" stroke-linecap="square" stroke-linejoin="bevel" transform="matrix(1.00267,0,0,1.00267,9.02406,19.5521)"
font-family="Ubuntu" font-size="11" font-weight="400" font-style="normal" 
>
</g>

<g fill="none" stroke="#000000" stroke-opacity="1" stroke-width="1" stroke-linecap="square" stroke-linejoin="bevel" transform="matrix(1.00267,0,0,1.00267,9.02406,19.5521)"
font-family="Ubuntu" font-size="11" font-weight="400" font-style="normal" 
>
</g>

<g fill="none" stroke="#000000" stroke-opacity="1" stroke-width="1" stroke-linecap="square" stroke-linejoin="bevel" transform="matrix(1.00267,0,0,1.00267,9.02406,19.5521)"
font-family="Ubuntu" font-size="11" font-weight="400" font-style="normal" 
>
</g>

<g fill="none" stroke="#000000" stroke-opacity="1" stroke-width="1" stroke-linecap="square" stroke-linejoin="bevel" transform="matrix(1.00267,0,0,1.00267,9.02406,19.5521)"
font-family="Ubuntu" font-size="11" font-weight="400" font-style="normal" 
>
</g>

<g fill="none" stroke="#000000" stroke-opacity="1" stroke-width="1" stroke-linecap="square" stroke-linejoin="bevel" transform="matrix(1.00267,0,0,1.00267,9.02406,19.5521)"
font-family="Sans" font-size="9" font-weight="400" font-style="normal" 
>
<text fill="#000000" fill-opacity="1" stroke="none" xml:space="preserve" x="0" y="0" font-family="Sans" font-size="9" font-weight="400" font-style="normal" 
 > 140000</text>
</g>

<g fill="none" stroke="#000000" stroke-opacity="1" stroke-width="1" stroke-linecap="square" stroke-linejoin="bevel" transform="matrix(1.00267,0,0,1.00267,9.02406,19.5521)"
font-family="Ubuntu" font-size="11" font-weight="400" font-style="normal" 
>
</g>

<g fill="none" stroke="#000000" stroke-opacity="1" stroke-width="1" stroke-linecap="square" stroke-linejoin="bevel" transform="matrix(1.00267,0,0,1.00267,0,0)"
font-family="Ubuntu" font-size="11" font-weight="400" font-style="normal" 
>
</g>

<g fill="none" stroke="#a0a0a4" stroke-opacity="1" stroke-dasharray="0.5,1" stroke-dashoffset="0" stroke-width="0.5" stroke-linecap="round" stroke-linejoin="round" transform="matrix(1.00267,0,0,1.00267,0,0)"
font-family="Ubuntu" font-size="11" font-weight="400" font-style="normal" 
>
<polyline fill="none" vector-effect="none" points="66.5,562.5 66.5,15.5 " />
</g>

<g fill="none" stroke="#000000" stroke-opacity="1" stroke-width="1" stroke-linecap="round" stroke-linejoin="round" transform="matrix(1.00267,0,0,1.00267,0,0)"
font-family="Ubuntu" font-size="11" font-weight="400" font-style="normal" 
>
<polyline fill="none" vector-effect="none" points="66.5,562.5 66.5,556.5 " />
<polyline fill="none" vector-effect="none" points="66.5,15.5 66.5,21.5 " />
</g>

<g fill="none" stroke="#000000" stroke-opacity="1" stroke-width="1" stroke-linecap="square" stroke-linejoin="bevel" transform="matrix(1.00267,0,0,1.00267,0,0)"
font-family="Ubuntu" font-size="11" font-weight="400" font-style="normal" 
>
</g>

<g fill="none" stroke="#000000" stroke-opacity="1" stroke-width="1" stroke-linecap="square" stroke-linejoin="bevel" transform="matrix(1.00267,0,0,1.00267,61.6644,584.057)"
font-family="Ubuntu" font-size="11" font-weight="400" font-style="normal" 
>
</g>

<g fill="none" stroke="#000000" stroke-opacity="1" stroke-width="1" stroke-linecap="square" stroke-linejoin="bevel" transform="matrix(1.00267,0,0,1.00267,61.6644,584.057)"
font-family="Ubuntu" font-size="11" font-weight="400" font-style="normal" 
>
</g>

<g fill="none" stroke="#000000" stroke-opacity="1" stroke-width="1" stroke-linecap="square" stroke-linejoin="bevel" transform="matrix(1.00267,0,0,1.00267,61.6644,584.057)"
font-family="Ubuntu" font-size="11" font-weight="400" font-style="normal" 
>
</g>

<g fill="none" stroke="#000000" stroke-opacity="1" stroke-width="1" stroke-linecap="square" stroke-linejoin="bevel" transform="matrix(1.00267,0,0,1.00267,61.6644,584.057)"
font-family="Ubuntu" font-size="11" font-weight="400" font-style="normal" 
>
</g>

<g fill="none" stroke="#000000" stroke-opacity="1" stroke-width="1" stroke-linecap="square" stroke-linejoin="bevel" transform="matrix(1.00267,0,0,1.00267,61.6644,584.057)"
font-family="Ubuntu" font-size="11" font-weight="400" font-style="normal" 
>
</g>

<g fill="none" stroke="#000000" stroke-opacity="1" stroke-width="1" stroke-linecap="square" stroke-linejoin="bevel" transform="matrix(1.00267,0,0,1.00267,61.6644,584.057)"
font-family="Sans" font-size="9" font-weight="400" font-style="normal" 
>
<text fill="#000000" fill-opacity="1" stroke="none" xml:space="preserve" x="0" y="0" font-family="Sans" font-size="9" font-weight="400" font-style="normal" 
 > 0</text>
</g>

<g fill="none" stroke="#000000" stroke-opacity="1" stroke-width="1" stroke-linecap="square" stroke-linejoin="bevel" transform="matrix(1.00267,0,0,1.00267,61.6644,584.057)"
font-family="Ubuntu" font-size="11" font-weight="400" font-style="normal" 
>
</g>

<g fill="none" stroke="#000000" stroke-opacity="1" stroke-width="1" stroke-linecap="square" stroke-linejoin="bevel" transform="matrix(1.00267,0,0,1.00267,0,0)"
font-family="Ubuntu" font-size="11" font-weight="400" font-style="normal" 
>
</g>

<g fill="none" stroke="#a0a0a4" stroke-opacity="1" stroke-dasharray="0.5,1" stroke-dashoffset="0" stroke-width="0.5" stroke-linecap="round" stroke-linejoin="round" transform="matrix(1.00267,0,0,1.00267,0,0)"
font-family="Ubuntu" font-size="11" font-weight="400" font-style="normal" 
>
<polyline fill="none" vector-effect="none" points="198.5,562.5 198.5,15.5 " />
</g>

<g fill="none" stroke="#000000" stroke-opacity="1" stroke-width="1" stroke-linecap="round" stroke-linejoin="round" transform="matrix(1.00267,0,0,1.00267,0,0)"
font-family="Ubuntu" font-size="11" font-weight="400" font-style="normal" 
>
<polyline fill="none" vector-effect="none" points="198.5,562.5 198.5,556.5 " />
<polyline fill="none" vector-effect="none" points="198.5,15.5 198.5,21.5 " />
</g>

<g fill="none" stroke="#000000" stroke-opacity="1" stroke-width="1" stroke-linecap="square" stroke-linejoin="bevel" transform="matrix(1.00267,0,0,1.00267,0,0)"
font-family="Ubuntu" font-size="11" font-weight="400" font-style="normal" 
>
</g>

<g fill="none" stroke="#000000" stroke-opacity="1" stroke-width="1" stroke-linecap="square" stroke-linejoin="bevel" transform="matrix(1.00267,0,0,1.00267,185.996,584.057)"
font-family="Ubuntu" font-size="11" font-weight="400" font-style="normal" 
>
</g>

<g fill="none" stroke="#000000" stroke-opacity="1" stroke-width="1" stroke-linecap="square" stroke-linejoin="bevel" transform="matrix(1.00267,0,0,1.00267,185.996,584.057)"
font-family="Ubuntu" font-size="11" font-weight="400" font-style="normal" 
>
</g>

<g fill="none" stroke="#000000" stroke-opacity="1" stroke-width="1" stroke-linecap="square" stroke-linejoin="bevel" transform="matrix(1.00267,0,0,1.00267,185.996,584.057)"
font-family="Ubuntu" font-size="11" font-weight="400" font-style="normal" 
>
</g>

<g fill="none" stroke="#000000" stroke-opacity="1" stroke-width="1" stroke-linecap="square" stroke-linejoin="bevel" transform="matrix(1.00267,0,0,1.00267,185.996,584.057)"
font-family="Ubuntu" font-size="11" font-weight="400" font-style="normal" 
>
</g>

<g fill="none" stroke="#000000" stroke-opacity="1" stroke-width="1" stroke-linecap="square" stroke-linejoin="bevel" transform="matrix(1.00267,0,0,1.00267,185.996,584.057)"
font-family="Ubuntu" font-size="11" font-weight="400" font-style="normal" 
>
</g>

<g fill="none" stroke="#000000" stroke-opacity="1" stroke-width="1" stroke-linecap="square" stroke-linejoin="bevel" transform="matrix(1.00267,0,0,1.00267,185.996,584.057)"
font-family="Sans" font-size="9" font-weight="400" font-style="normal" 
>
<text fill="#000000" fill-opacity="1" stroke="none" xml:space="preserve" x="0" y="0" font-family="Sans" font-size="9" font-weight="400" font-style="normal" 
 > 200</text>
</g>

<g fill="none" stroke="#000000" stroke-opacity="1" stroke-width="1" stroke-linecap="square" stroke-linejoin="bevel" transform="matrix(1.00267,0,0,1.00267,185.996,584.057)"
font-family="Ubuntu" font-size="11" font-weight="400" font-style="normal" 
>
</g>

<g fill="none" stroke="#000000" stroke-opacity="1" stroke-width="1" stroke-linecap="square" stroke-linejoin="bevel" transform="matrix(1.00267,0,0,1.00267,0,0)"
font-family="Ubuntu" font-size="11" font-weight="400" font-style="normal" 
>
</g>

<g fill="none" stroke="#a0a0a4" stroke-opacity="1" stroke-dasharray="0.5,1" stroke-dashoffset="0" stroke-width="0.5" stroke-linecap="round" stroke-linejoin="round" transform="matrix(1.00267,0,0,1.00267,0,0)"
font-family="Ubuntu" font-size="11" font-weight="400" font-style="normal" 
>
<polyline fill="none" vector-effect="none" points="330.5,562.5 330.5,15.5 " />
</g>

<g fill="none" stroke="#000000" stroke-opacity="1" stroke-width="1" stroke-linecap="round" stroke-linejoin="round" transform="matrix(1.00267,0,0,1.00267,0,0)"
font-family="Ubuntu" font-size="11" font-weight="400" font-style="normal" 
>
<polyline fill="none" vector-effect="none" points="330.5,562.5 330.5,556.5 " />
<polyline fill="none" vector-effect="none" points="330.5,15.5 330.5,21.5 " />
</g>

<g fill="none" stroke="#000000" stroke-opacity="1" stroke-width="1" stroke-linecap="square" stroke-linejoin="bevel" transform="matrix(1.00267,0,0,1.00267,0,0)"
font-family="Ubuntu" font-size="11" font-weight="400" font-style="normal" 
>
</g>

<g fill="none" stroke="#000000" stroke-opacity="1" stroke-width="1" stroke-linecap="square" stroke-linejoin="bevel" transform="matrix(1.00267,0,0,1.00267,318.349,584.057)"
font-family="Ubuntu" font-size="11" font-weight="400" font-style="normal" 
>
</g>

<g fill="none" stroke="#000000" stroke-opacity="1" stroke-width="1" stroke-linecap="square" stroke-linejoin="bevel" transform="matrix(1.00267,0,0,1.00267,318.349,584.057)"
font-family="Ubuntu" font-size="11" font-weight="400" font-style="normal" 
>
</g>

<g fill="none" stroke="#000000" stroke-opacity="1" stroke-width="1" stroke-linecap="square" stroke-linejoin="bevel" transform="matrix(1.00267,0,0,1.00267,318.349,584.057)"
font-family="Ubuntu" font-size="11" font-weight="400" font-style="normal" 
>
</g>

<g fill="none" stroke="#000000" stroke-opacity="1" stroke-width="1" stroke-linecap="square" stroke-linejoin="bevel" transform="matrix(1.00267,0,0,1.00267,318.349,584.057)"
font-family="Ubuntu" font-size="11" font-weight="400" font-style="normal" 
>
</g>

<g fill="none" stroke="#000000" stroke-opacity="1" stroke-width="1" stroke-linecap="square" stroke-linejoin="bevel" transform="matrix(1.00267,0,0,1.00267,318.349,584.057)"
font-family="Ubuntu" font-size="11" font-weight="400" font-style="normal" 
>
</g>

<g fill="none" stroke="#000000" stroke-opacity="1" stroke-width="1" stroke-linecap="square" stroke-linejoin="bevel" transform="matrix(1.00267,0,0,1.00267,318.349,584.057)"
font-family="Sans" font-size="9" font-weight="400" font-style="normal" 
>
<text fill="#000000" fill-opacity="1" stroke="none" xml:space="preserve" x="0" y="0" font-family="Sans" font-size="9" font-weight="400" font-style="normal" 
 > 400</text>
</g>

<g fill="none" stroke="#000000" stroke-opacity="1" stroke-width="1" stroke-linecap="square" stroke-linejoin="bevel" transform="matrix(1.00267,0,0,1.00267,318.349,584.057)"
font-family="Ubuntu" font-size="11" font-weight="400" font-style="normal" 
>
</g>

<g fill="none" stroke="#000000" stroke-opacity="1" stroke-width="1" stroke-linecap="square" stroke-linejoin="bevel" transform="matrix(1.00267,0,0,1.00267,0,0)"
font-family="Ubuntu" font-size="11" font-weight="400" font-style="normal" 
>
</g>

<g fill="none" stroke="#a0a0a4" stroke-opacity="1" stroke-dasharray="0.5,1" stroke-dashoffset="0" stroke-width="0.5" stroke-linecap="round" stroke-linejoin="round" transform="matrix(1.00267,0,0,1.00267,0,0)"
font-family="Ubuntu" font-size="11" font-weight="400" font-style="normal" 
>
<polyline fill="none" vector-effect="none" points="462.5,562.5 462.5,15.5 " />
</g>

<g fill="none" stroke="#000000" stroke-opacity="1" stroke-width="1" stroke-linecap="round" stroke-linejoin="round" transform="matrix(1.00267,0,0,1.00267,0,0)"
font-family="Ubuntu" font-size="11" font-weight="400" font-style="normal" 
>
<polyline fill="none" vector-effect="none" points="462.5,562.5 462.5,556.5 " />
<polyline fill="none" vector-effect="none" points="462.5,15.5 462.5,21.5 " />
</g>

<g fill="none" stroke="#000000" stroke-opacity="1" stroke-width="1" stroke-linecap="square" stroke-linejoin="bevel" transform="matrix(1.00267,0,0,1.00267,0,0)"
font-family="Ubuntu" font-size="11" font-weight="400" font-style="normal" 
>
</g>

<g fill="none" stroke="#000000" stroke-opacity="1" stroke-width="1" stroke-linecap="square" stroke-linejoin="bevel" transform="matrix(1.00267,0,0,1.00267,450.702,584.057)"
font-family="Ubuntu" font-size="11" font-weight="400" font-style="normal" 
>
</g>

<g fill="none" stroke="#000000" stroke-opacity="1" stroke-width="1" stroke-linecap="square" stroke-linejoin="bevel" transform="matrix(1.00267,0,0,1.00267,450.702,584.057)"
font-family="Ubuntu" font-size="11" font-weight="400" font-style="normal" 
>
</g>

<g fill="none" stroke="#000000" stroke-opacity="1" stroke-width="1" stroke-linecap="square" stroke-linejoin="bevel" transform="matrix(1.00267,0,0,1.00267,450.702,584.057)"
font-family="Ubuntu" font-size="11" font-weight="400" font-style="normal" 
>
</g>

<g fill="none" stroke="#000000" stroke-opacity="1" stroke-width="1" stroke-linecap="square" stroke-linejoin="bevel" transform="matrix(1.00267,0,0,1.00267,450.702,584.057)"
font-family="Ubuntu" font-size="11" font-weight="400" font-style="normal" 
>
</g>

<g fill="none" stroke="#000000" stroke-opacity="1" stroke-width="1" stroke-linecap="square" stroke-linejoin="bevel" transform="matrix(1.00267,0,0,1.00267,450.702,584.057)"
font-family="Ubuntu" font-size="11" font-weight="400" font-style="normal" 
>
</g>

<g fill="none" stroke="#000000" stroke-opacity="1" stroke-width="1" stroke-linecap="square" stroke-linejoin="bevel" transform="matrix(1.00267,0,0,1.00267,450.702,584.057)"
font-family="Sans" font-size="9" font-weight="400" font-style="normal" 
>
<text fill="#000000" fill-opacity="1" stroke="none" xml:space="preserve" x="0" y="0" font-family="Sans" font-size="9" font-weight="400" font-style="normal" 
 > 600</text>
</g>

<g fill="none" stroke="#000000" stroke-opacity="1" stroke-width="1" stroke-linecap="square" stroke-linejoin="bevel" transform="matrix(1.00267,0,0,1.00267,450.702,584.057)"
font-family="Ubuntu" font-size="11" font-weight="400" font-style="normal" 
>
</g>

<g fill="none" stroke="#000000" stroke-opacity="1" stroke-width="1" stroke-linecap="square" stroke-linejoin="bevel" transform="matrix(1.00267,0,0,1.00267,0,0)"
font-family="Ubuntu" font-size="11" font-weight="400" font-style="normal" 
>
</g>

<g fill="none" stroke="#a0a0a4" stroke-opacity="1" stroke-dasharray="0.5,1" stroke-dashoffset="0" stroke-width="0.5" stroke-linecap="round" stroke-linejoin="round" transform="matrix(1.00267,0,0,1.00267,0,0)"
font-family="Ubuntu" font-size="11" font-weight="400" font-style="normal" 
>
<polyline fill="none" vector-effect="none" points="594.5,562.5 594.5,15.5 " />
</g>

<g fill="none" stroke="#000000" stroke-opacity="1" stroke-width="1" stroke-linecap="round" stroke-linejoin="round" transform="matrix(1.00267,0,0,1.00267,0,0)"
font-family="Ubuntu" font-size="11" font-weight="400" font-style="normal" 
>
<polyline fill="none" vector-effect="none" points="594.5,562.5 594.5,556.5 " />
<polyline fill="none" vector-effect="none" points="594.5,15.5 594.5,21.5 " />
</g>

<g fill="none" stroke="#000000" stroke-opacity="1" stroke-width="1" stroke-linecap="square" stroke-linejoin="bevel" transform="matrix(1.00267,0,0,1.00267,0,0)"
font-family="Ubuntu" font-size="11" font-weight="400" font-style="normal" 
>
</g>

<g fill="none" stroke="#000000" stroke-opacity="1" stroke-width="1" stroke-linecap="square" stroke-linejoin="bevel" transform="matrix(1.00267,0,0,1.00267,583.055,584.057)"
font-family="Ubuntu" font-size="11" font-weight="400" font-style="normal" 
>
</g>

<g fill="none" stroke="#000000" stroke-opacity="1" stroke-width="1" stroke-linecap="square" stroke-linejoin="bevel" transform="matrix(1.00267,0,0,1.00267,583.055,584.057)"
font-family="Ubuntu" font-size="11" font-weight="400" font-style="normal" 
>
</g>

<g fill="none" stroke="#000000" stroke-opacity="1" stroke-width="1" stroke-linecap="square" stroke-linejoin="bevel" transform="matrix(1.00267,0,0,1.00267,583.055,584.057)"
font-family="Ubuntu" font-size="11" font-weight="400" font-style="normal" 
>
</g>

<g fill="none" stroke="#000000" stroke-opacity="1" stroke-width="1" stroke-linecap="square" stroke-linejoin="bevel" transform="matrix(1.00267,0,0,1.00267,583.055,584.057)"
font-family="Ubuntu" font-size="11" font-weight="400" font-style="normal" 
>
</g>

<g fill="none" stroke="#000000" stroke-opacity="1" stroke-width="1" stroke-linecap="square" stroke-linejoin="bevel" transform="matrix(1.00267,0,0,1.00267,583.055,584.057)"
font-family="Ubuntu" font-size="11" font-weight="400" font-style="normal" 
>
</g>

<g fill="none" stroke="#000000" stroke-opacity="1" stroke-width="1" stroke-linecap="square" stroke-linejoin="bevel" transform="matrix(1.00267,0,0,1.00267,583.055,584.057)"
font-family="Sans" font-size="9" font-weight="400" font-style="normal" 
>
<text fill="#000000" fill-opacity="1" stroke="none" xml:space="preserve" x="0" y="0" font-family="Sans" font-size="9" font-weight="400" font-style="normal" 
 > 800</text>
</g>

<g fill="none" stroke="#000000" stroke-opacity="1" stroke-width="1" stroke-linecap="square" stroke-linejoin="bevel" transform="matrix(1.00267,0,0,1.00267,583.055,584.057)"
font-family="Ubuntu" font-size="11" font-weight="400" font-style="normal" 
>
</g>

<g fill="none" stroke="#000000" stroke-opacity="1" stroke-width="1" stroke-linecap="square" stroke-linejoin="bevel" transform="matrix(1.00267,0,0,1.00267,0,0)"
font-family="Ubuntu" font-size="11" font-weight="400" font-style="normal" 
>
</g>

<g fill="none" stroke="#a0a0a4" stroke-opacity="1" stroke-dasharray="0.5,1" stroke-dashoffset="0" stroke-width="0.5" stroke-linecap="round" stroke-linejoin="round" transform="matrix(1.00267,0,0,1.00267,0,0)"
font-family="Ubuntu" font-size="11" font-weight="400" font-style="normal" 
>
<polyline fill="none" vector-effect="none" points="726.5,562.5 726.5,15.5 " />
</g>

<g fill="none" stroke="#000000" stroke-opacity="1" stroke-width="1" stroke-linecap="round" stroke-linejoin="round" transform="matrix(1.00267,0,0,1.00267,0,0)"
font-family="Ubuntu" font-size="11" font-weight="400" font-style="normal" 
>
<polyline fill="none" vector-effect="none" points="726.5,562.5 726.5,556.5 " />
<polyline fill="none" vector-effect="none" points="726.5,15.5 726.5,21.5 " />
</g>

<g fill="none" stroke="#000000" stroke-opacity="1" stroke-width="1" stroke-linecap="square" stroke-linejoin="bevel" transform="matrix(1.00267,0,0,1.00267,0,0)"
font-family="Ubuntu" font-size="11" font-weight="400" font-style="normal" 
>
</g>

<g fill="none" stroke="#000000" stroke-opacity="1" stroke-width="1" stroke-linecap="square" stroke-linejoin="bevel" transform="matrix(1.00267,0,0,1.00267,711.397,584.057)"
font-family="Ubuntu" font-size="11" font-weight="400" font-style="normal" 
>
</g>

<g fill="none" stroke="#000000" stroke-opacity="1" stroke-width="1" stroke-linecap="square" stroke-linejoin="bevel" transform="matrix(1.00267,0,0,1.00267,711.397,584.057)"
font-family="Ubuntu" font-size="11" font-weight="400" font-style="normal" 
>
</g>

<g fill="none" stroke="#000000" stroke-opacity="1" stroke-width="1" stroke-linecap="square" stroke-linejoin="bevel" transform="matrix(1.00267,0,0,1.00267,711.397,584.057)"
font-family="Ubuntu" font-size="11" font-weight="400" font-style="normal" 
>
</g>

<g fill="none" stroke="#000000" stroke-opacity="1" stroke-width="1" stroke-linecap="square" stroke-linejoin="bevel" transform="matrix(1.00267,0,0,1.00267,711.397,584.057)"
font-family="Ubuntu" font-size="11" font-weight="400" font-style="normal" 
>
</g>

<g fill="none" stroke="#000000" stroke-opacity="1" stroke-width="1" stroke-linecap="square" stroke-linejoin="bevel" transform="matrix(1.00267,0,0,1.00267,711.397,584.057)"
font-family="Ubuntu" font-size="11" font-weight="400" font-style="normal" 
>
</g>

<g fill="none" stroke="#000000" stroke-opacity="1" stroke-width="1" stroke-linecap="square" stroke-linejoin="bevel" transform="matrix(1.00267,0,0,1.00267,711.397,584.057)"
font-family="Sans" font-size="9" font-weight="400" font-style="normal" 
>
<text fill="#000000" fill-opacity="1" stroke="none" xml:space="preserve" x="0" y="0" font-family="Sans" font-size="9" font-weight="400" font-style="normal" 
 > 1000</text>
</g>

<g fill="none" stroke="#000000" stroke-opacity="1" stroke-width="1" stroke-linecap="square" stroke-linejoin="bevel" transform="matrix(1.00267,0,0,1.00267,711.397,584.057)"
font-family="Ubuntu" font-size="11" font-weight="400" font-style="normal" 
>
</g>

<g fill="none" stroke="#000000" stroke-opacity="1" stroke-width="1" stroke-linecap="square" stroke-linejoin="bevel" transform="matrix(1.00267,0,0,1.00267,0,0)"
font-family="Ubuntu" font-size="11" font-weight="400" font-style="normal" 
>
</g>

<g fill="none" stroke="#000000" stroke-opacity="1" stroke-width="1" stroke-linecap="round" stroke-linejoin="round" transform="matrix(1.00267,0,0,1.00267,0,0)"
font-family="Ubuntu" font-size="11" font-weight="400" font-style="normal" 
>
<polyline fill="none" vector-effect="none" points="66.5,15.5 66.5,562.5 726.5,562.5 726.5,15.5 66.5,15.5 " />
</g>

<g fill="none" stroke="#000000" stroke-opacity="1" stroke-width="1" stroke-linecap="square" stroke-linejoin="bevel" transform="matrix(1.00267,0,0,1.00267,0,0)"
font-family="Ubuntu" font-size="11" font-weight="400" font-style="normal" 
>
</g>

<g fill="none" stroke="#000000" stroke-opacity="1" stroke-width="1" stroke-linecap="square" stroke-linejoin="bevel" transform="matrix(1.00267,0,0,1.00267,648.73,33.5896)"
font-family="Ubuntu" font-size="11" font-weight="400" font-style="normal" 
>
</g>

<g fill="none" stroke="#000000" stroke-opacity="1" stroke-width="1" stroke-linecap="square" stroke-linejoin="bevel" transform="matrix(1.00267,0,0,1.00267,648.73,33.5896)"
font-family="Ubuntu" font-size="11" font-weight="400" font-style="normal" 
>
</g>

<g fill="none" stroke="#000000" stroke-opacity="1" stroke-width="1" stroke-linecap="square" stroke-linejoin="bevel" transform="matrix(1.00267,0,0,1.00267,648.73,33.5896)"
font-family="Ubuntu" font-size="11" font-weight="400" font-style="normal" 
>
</g>

<g fill="none" stroke="#000000" stroke-opacity="1" stroke-width="1" stroke-linecap="square" stroke-linejoin="bevel" transform="matrix(1.00267,0,0,1.00267,648.73,33.5896)"
font-family="Ubuntu" font-size="11" font-weight="400" font-style="normal" 
>
</g>

<g fill="none" stroke="#000000" stroke-opacity="1" stroke-width="1" stroke-linecap="square" stroke-linejoin="bevel" transform="matrix(1.00267,0,0,1.00267,648.73,33.5896)"
font-family="Ubuntu" font-size="11" font-weight="400" font-style="normal" 
>
</g>

<g fill="none" stroke="#000000" stroke-opacity="1" stroke-width="1" stroke-linecap="square" stroke-linejoin="bevel" transform="matrix(1.00267,0,0,1.00267,648.73,33.5896)"
font-family="Sans" font-size="9" font-weight="400" font-style="normal" 
>
<text fill="#000000" fill-opacity="1" stroke="none" xml:space="preserve" x="0" y="0" font-family="Sans" font-size="9" font-weight="400" font-style="normal" 
 >new</text>
</g>

<g fill="none" stroke="#000000" stroke-opacity="1" stroke-width="1" stroke-linecap="square" stroke-linejoin="bevel" transform="matrix(1.00267,0,0,1.00267,648.73,33.5896)"
font-family="Ubuntu" font-size="11" font-weight="400" font-style="normal" 
>
</g>

<g fill="none" stroke="#000000" stroke-opacity="1" stroke-width="1" stroke-linecap="square" stroke-linejoin="bevel" transform="matrix(1.00267,0,0,1.00267,0,0)"
font-family="Ubuntu" font-size="11" font-weight="400" font-style="normal" 
>
</g>

<g fill="none" stroke="#56b4e9" stroke-opacity="1" stroke-width="1" stroke-linecap="round" stroke-linejoin="round" transform="matrix(1.00267,0,0,1.00267,0,0)"
font-family="Ubuntu" font-size="11" font-weight="400" font-style="normal" 
>
<path vector-effect="none" fill-rule="evenodd" d="M678.5,28.5 L712.5,28.5"/>
</g>

<g fill="none" stroke="#000000" stroke-opacity="1" stroke-width="1" stroke-linecap="square" stroke-linejoin="bevel" transform="matrix(1.00267,0,0,1.00267,0,0)"
font-family="Ubuntu" font-size="11" font-weight="400" font-style="normal" 
>
</g>

<g fill="none" stroke="#000000" stroke-opacity="1" stroke-width="1" stroke-linecap="square" stroke-linejoin="bevel" transform="matrix(1.00267,0,0,1.00267,0,0)"
font-family="Ubuntu" font-size="11" font-weight="400" font-style="normal" 
>
</g>

<g fill="none" stroke="#000000" stroke-opacity="1" stroke-width="1" stroke-linecap="square" stroke-linejoin="bevel" transform="matrix(1.00267,0,0,1.00267,0,0)"
font-family="Ubuntu" font-size="11" font-weight="400" font-style="normal" 
>
</g>

<g fill="none" stroke="#000000" stroke-opacity="1" stroke-width="1" stroke-linecap="square" stroke-linejoin="bevel" transform="matrix(1.00267,0,0,1.00267,0,0)"
font-family="Ubuntu" font-size="11" font-weight="400" font-style="normal" 
>
</g>

<g fill="none" stroke="#56b4e9" stroke-opacity="1" stroke-width="1" stroke-linecap="round" stroke-linejoin="round" transform="matrix(1.00267,0,0,1.00267,0,0)"
font-family="Ubuntu" font-size="11" font-weight="400" font-style="normal" 
>
<polyline fill="none" vector-effect="none" points="66.5,562.9 66.5,562.9 67.2,562.9 67.8,562.9 68.5,562.9 69.1,562.9 69.8,562.9 70.5,562.9 71.1,562.9 71.8,562.9 72.4,562.9 73.1,562.9 73.8,562.9 74.4,562.9 75.1,562.9 75.7,562.9 76.4,562.9 77.1,562.9 77.7,562.9 78.4,562.9 79,562.9 79.7,562.9 80.4,562.9 81,562.9 81.7,562.9 82.3,562.9 83,562.9 83.7,562.9 84.3,562.9 85,562.9 85.7,562.9 86.3,562.9 87,562.9 87.6,562.9 88.3,562.9 89,562.9 89.6,562.9 90.3,562.9 90.9,562.9 91.6,562.9 92.3,562.9 92.9,562.9 93.6,562.9 94.2,562.9 94.9,562.9 95.6,562.9 96.2,562.9 96.9,562.9 97.5,562.9 98.2,562.9 98.9,562.9 99.5,562.9 100.2,562.9 100.8,562.9 101.5,562.9 102.2,562.3 102.8,561.8 103.5,561.4 104.1,560.6 104.8,559.8 105.5,558.6 106.1,557.9 106.8,560.6 107.4,559.5 108.1,559 108.8,558.4 109.4,559.9 110.1,562.6 110.7,561.6 111.4,561.1 112.1,560.4 112.7,559.8 113.4,562.4 114,561.9 114.7,562.9 115.4,561.9 116,560.9 116.7,559.9 117.4,559.2 118,557.8 118.7,560.1 119.3,559.4 120,558.3 120.7,556.1 121.3,559.1 122,558.2 122.6,557.4 123.3,556.5 124,555.7 124.6,555.1 125.3,556.5 125.9,555.5 126.6,558.1 127.3,556.9 127.9,556.1 128.6,555.4 129.2,554.6 129.9,553.5 130.6,554.4 131.2,553.2 131.9,556.4 132.5,555.6 133.2,554.8 133.9,554 134.5,553.2 135.2,552.5 135.8,554.9 136.5,554.1 137.2,556.9 137.8,556.2 138.5,555.4 139.1,554 139.8,552.9 140.5,551.6 141.1,554.3 141.8,553 142.4,555.4 143.1,554.1 143.8,552.8 144.4,551.5 145.1,550.1 145.7,549.3 146.4,551.9 147.1,551.2 147.7,553.7 148.4,552.8 149.1,551.7 149.7,550.7 150.4,549.3 151,548 151.7,550.2 152.4,549.5 153,552.5 153.7,551.7 154.3,550.9 155,550.2 155.7,549.3 156.3,548.6 157,551.7 157.6,550.6 158.3,553.7 159,551.8 159.6,550.5 160.3,549.2 160.9,548.4 161.6,547.8 162.3,550 162.9,549.2 163.6,552.3 164.2,551.5 164.9,550.7 165.6,549.8 166.2,549.1 166.9,548.4 167.5,551.5 168.2,550.7 168.9,553.9 169.5,552.9 170.2,552.1 170.8,551.4 171.5,550.4 172.2,549.6 172.8,551.7 173.5,550.4 174.1,552.9 174.8,552.1 175.5,550.7 176.1,549.6 176.8,548.3 177.4,547.2 178.1,550.4 178.8,549.7 179.4,552.1 180.1,551.4 180.7,550.3 181.4,549 182.1,547.9 182.7,547.2 183.4,550.5 184.1,549.8 184.7,552.9 185.4,552 186,551.2 186.7,550.3 187.4,549.6 188,548.5 188.7,551 189.3,550.2 190,553.4 190.7,552.2 191.3,551.2 192,550.5 192.6,549.8 193.3,548.8 194,552 194.6,550.7 195.3,553.4 195.9,552.5 196.6,551.2 197.3,549.9 197.9,548.9 198.6,548 199.2,551.2 199.9,548.6 200.6,551.6 201.2,550.8 201.9,550.1 202.5,549.4 203.2,548.6 203.9,547.9 204.5,551.1 205.2,550 205.8,553.1 206.5,552.3 207.2,551 207.8,550.2 208.5,549.4 209.1,548.6 209.8,551.8 210.5,549.9 211.1,553 211.8,551.9 212.4,551.1 213.1,550.4 213.8,549.6 214.4,548.8 215.1,551.6 215.8,550.3 216.4,553.2 217.1,551.9 217.7,550.7 218.4,550 219.1,549.4 219.7,548.4 220.4,550.7 221,549.9 221.7,553.1 222.4,551.9 223,550.7 223.7,549.4 224.3,548.2 225,547.5 225.7,550.5 226.3,549.5 227,552.6 227.6,551.8 228.3,551 229,549.9 229.6,549.2 230.3,548.4 230.9,550.7 231.6,549.9 232.3,552.9 232.9,551.8 233.6,550.9 234.2,549.6 234.9,548.3 235.6,547 236.2,549.5 236.9,548.8 237.5,552 238.2,551.3 238.9,550.4 239.5,549.1 240.2,547.8 240.8,546 241.5,547.4 242.2,546.2 242.8,548.6 243.5,547.3 244.1,545.9 244.8,545.2 245.5,544.4 246.1,543.1 246.8,545.7 247.4,544.4 248.1,547.3 248.8,546.6 249.4,545.7 250.1,545 250.8,544.3 251.4,543 252.1,545.3 252.7,544.6 253.4,547.7 254.1,547 254.7,546.3 255.4,545.3 256,544.5 256.7,543.8 257.4,546.9 258,546.2 258.7,549.4 259.3,548.7 260,547.9 260.7,547.1 261.3,546.4 262,545.6 262.6,547.4 263.3,546.1 264,549 264.6,547.5 265.3,546.3 265.9,545.1 266.6,544.1 267.3,543.3 267.9,546.4 268.6,545.6 269.2,548.7 269.9,547.6 270.6,546.1 271.2,545.2 271.9,544.4 272.5,542.6 273.2,545.7 273.9,544.9 274.5,547.6 275.2,546.7 275.8,545.9 276.5,545 277.2,544.2 277.8,543.2 278.5,544.7 279.1,543.9 279.8,546.9 280.5,546.1 281.1,545.4 281.8,544.7 282.5,544 283.1,543 283.8,546.2 284.4,545.2 285.1,548.3 285.8,547.5 286.4,546.7 287.1,545.8 287.7,545.1 288.4,544.3 289.1,546.9 289.7,545.9 290.4,548.1 291,546.2 291.7,545.5 292.4,544.4 293,543.6 293.7,542.6 294.3,545.2 295,544.4 295.7,547.4 296.3,546.5 297,545.7 297.6,544.7 298.3,543.5 299,542.2 299.6,545.4 300.3,544.6 300.9,547.4 301.6,546.6 302.3,545.8 302.9,545.1 303.6,544.4 304.2,543.5 304.9,546.4 305.6,544.6 306.2,547.5 306.9,546.2 307.5,544.9 308.2,544 308.9,542.8 309.5,542 310.2,544.6 310.8,543.3 311.5,546.1 312.2,545.3 312.8,544.6 313.5,543.8 314.2,542.8 314.8,541.9 315.5,545.1 316.1,544.3 316.8,546.6 317.5,545.2 318.1,544 318.8,542.8 319.4,542.1 320.1,541.2 320.8,544.4 321.4,543.4 322.1,546.1 322.7,545 323.4,544.1 324.1,542.8 324.7,541.9 325.4,540.9 326,544.1 326.7,543.4 327.4,546 328,543.8 328.7,543 329.3,542.3 330,541.6 330.7,540.8 331.3,543.3 332,542.6 332.6,545.7 333.3,544.7 334,543.9 334.6,542.8 335.3,542 335.9,541.3 336.6,544.3 337.3,543.1 337.9,546 338.6,545.3 339.2,544.3 339.9,543 340.6,541.7 341.2,541 341.9,544.2 342.5,543.4 343.2,545.8 343.9,545 344.5,544.2 345.2,543.5 345.8,542.6 346.5,540.8 347.2,543.9 347.8,543.2 348.5,546.4 349.2,545.3 349.8,544.6 350.5,543.9 351.1,543.2 351.8,542.5 352.5,545.7 353.1,544.9 353.8,547.4 354.4,545.9 355.1,545.1 355.8,544.3 356.4,543.5 357.1,542.4 357.7,545.3 358.4,543.5 359.1,546.7 359.7,546 360.4,545.2 361,544.1 361.7,542.8 362.4,542 363,545.2 363.7,544.5 364.3,547.7 365,546.5 365.7,545.3 366.3,544 367,542.7 367.6,542 368.3,545.1 369,544.3 369.6,547 370.3,545.8 370.9,545.1 371.6,543.8 372.3,541.4 372.9,540.8 373.6,543.1 374.2,542.3 374.9,545.5 375.6,544.4 376.2,543.4 376.9,542 377.5,540.7 378.2,539.3 378.9,542 379.5,540.9 380.2,543.8 380.9,542.9 381.5,542.2 382.2,541.4 382.8,540.7 383.5,540 384.2,543.1 384.8,541.8 385.5,544.3 386.1,543.2 386.8,542.5 387.5,541.7 388.1,540.7 388.8,539.7 389.4,542 390.1,540.6 390.8,543.3 391.4,542.6 392.1,541.9 392.7,541.2 393.4,540.4 394.1,539.7 394.7,542.7 395.4,541.9 396,544.9 396.7,543.8 397.4,542.9 398,542 398.7,541.3 399.3,540.5 400,543.1 400.7,542 401.3,545.2 402,544.2 402.6,543.1 403.3,542.4 404,540.5 404.6,539.3 405.3,541.1 405.9,539.8 406.6,542.4 407.3,541.7 407.9,541 408.6,539.1 409.2,538.1 409.9,536.8 410.6,539.9 411.2,539.2 411.9,541.8 412.5,540.8 413.2,540.1 413.9,539.4 414.5,538.6 415.2,537.9 415.9,540.9 416.5,540.2 417.2,543.5 417.8,542.8 418.5,542 419.2,541.3 419.8,540.6 420.5,539.8 421.1,541.9 421.8,541.2 422.5,544.4 423.1,543.7 423.8,542.9 424.4,542 425.1,541.3 425.8,540.7 426.4,543.7 427.1,542.3 427.7,545.2 428.4,544.4 429.1,543.8 429.7,542.4 430.4,541.1 431,539.8 431.7,542.4 432.4,541.2 433,543.6 433.7,542.3 434.3,541.1 435,539.7 435.7,538.5 436.3,537.5 437,539.5 437.6,538.7 438.3,541.8 439,541 439.6,540.1 440.3,538.7 440.9,537.5 441.6,536.3 442.3,538.9 442.9,537.7 443.6,540.7 444.2,540 444.9,539.3 445.6,537.9 446.2,536.6 446.9,535.9 447.6,538.8 448.2,537.8 448.9,541 449.5,539.6 450.2,538.4 450.9,537.1 451.5,536.3 452.2,535.6 452.8,538.8 453.5,538.1 454.2,540.3 454.8,539.5 455.5,538.7 456.1,537.5 456.8,535.8 457.5,534.6 458.1,537.9 458.8,537.1 459.4,540.2 460.1,539.5 460.8,538.8 461.4,538 462.1,537.3 462.7,536.5 463.4,539.3 464.1,538 464.7,540.6 465.4,538.6 466,537.2 466.7,535.9 467.4,534.9 468,534 468.7,537.1 469.3,536.3 470,537.5 470.7,536.2 471.3,535.3 472,534.6 472.6,533.9 473.3,532.6 474,535.1 474.6,534.4 475.3,537.6 475.9,536.7 476.6,535.9 477.3,535.1 477.9,534.3 478.6,533 479.3,534.9 479.9,533.7 480.6,536.8 481.2,535.7 481.9,534.5 482.6,533.2 483.2,532 483.9,530.8 484.5,533.5 485.2,532.6 485.9,535.7 486.5,535 487.2,534.3 487.8,533.5 488.5,532.8 489.2,531.7 489.8,533.2 490.5,532.5 491.1,535.7 491.8,535 492.5,533.5 493.1,532.8 493.8,531.9 494.4,531.1 495.1,534.2 495.8,533.5 496.4,536.7 497.1,535.5 497.7,534.8 498.4,532.6 499.1,531.3 499.7,530.1 500.4,533.2 501,532.4 501.7,535.2 502.4,533.9 503,532.7 503.7,531.9 504.3,531.2 505,530.4 505.7,533.5 506.3,532.6 507,535.7 507.6,535 508.3,533.9 509,532.3 509.6,531 510.3,529.7 510.9,531 511.6,529.8 512.3,532.8 512.9,531.4 513.6,530 514.3,527.9 514.9,526.9 515.6,525.6 516.2,528.3 516.9,527.5 517.6,530.6 518.2,529.4 518.9,528.6 519.5,527.8 520.2,527.1 520.9,526.4 521.5,529.6 522.2,528.8 522.8,531.5 523.5,530.2 524.2,529.1 524.8,528.3 525.5,527.5 526.1,526.7 526.8,529.6 527.5,528.4 528.1,531.1 528.8,529.8 529.4,528.7 530.1,527.9 530.8,527 531.4,526.2 532.1,529.3 532.7,528.6 533.4,530.4 534.1,529.7 534.7,529 535.4,528.3 536,527.1 536.7,526.4 537.4,529.4 538,528.7 538.7,531.9 539.3,531.1 540,529.9 540.7,529.1 541.3,528.3 542,527.6 542.6,530.7 543.3,530 544,533.3 544.6,532 545.3,531.3 546,530 546.6,529.3 547.3,528.1 547.9,531.2 548.6,530.4 549.3,533.6 549.9,532.9 550.6,532.2 551.2,531.3 551.9,530.3 552.6,529.2 553.2,531.6 553.9,530.3 554.5,532.9 555.2,531.5 555.9,530 556.5,528.2 557.2,526.8 557.8,525.8 558.5,528.3 559.2,527.6 559.8,529.8 560.5,528.9 561.1,528.2 561.8,527.4 562.5,526.6 563.1,525.2 563.8,527.9 564.4,527 565.1,529.5 565.8,528.4 566.4,527.3 567.1,526 567.7,525.3 568.4,524.4 569.1,527.6 569.7,526.8 570.4,529.8 571,527.5 571.7,526.1 572.4,525.2 573,524.5 573.7,523.3 574.3,526.6 575,525.8 575.7,528.9 576.3,527.6 577,526.7 577.6,525.4 578.3,524.2 579,523 579.6,525.3 580.3,524.3 581,526.7 581.6,525.2 582.3,523.7 582.9,522.9 583.6,522.1 584.3,520.7 584.9,523.1 585.6,521.8 586.2,524.9 586.9,523.8 587.6,523.2 588.2,522.4 588.9,521.5 589.5,520.5 590.2,523.5 590.9,522.3 591.5,525.4 592.2,524.4 592.8,523.7 593.5,522.9 594.2,522.2 594.8,521.5 595.5,524.5 596.1,523.1 596.8,525.7 597.5,524.6 598.1,523.5 598.8,522.3 599.4,521.6 600.1,520.9 600.8,524.1 601.4,523.3 602.1,526 602.7,525 603.4,524.2 604.1,522.8 604.7,521.9 605.4,521.1 606,524 606.7,523.1 607.4,525.1 608,524 608.7,523.3 609.3,522.6 610,521.9 610.7,521.2 611.3,523.7 612,522.3 612.7,524.8 613.3,524.1 614,523.4 614.6,522.6 615.3,521.2 616,520.4 616.6,523.6 617.3,522.2 617.9,524.9 618.6,523.6 619.3,522.6 619.9,521.9 620.6,521.2 621.2,519.4 621.9,522.4 622.6,521.6 623.2,524.7 623.9,523.5 624.5,522.2 625.2,521 625.9,520.2 626.5,519.5 627.2,522.7 627.8,521.8 628.5,524.5 629.2,523.7 629.8,523 630.5,522.2 631.1,520.8 631.8,519.9 632.5,523.1 633.1,522.4 633.8,525.6 634.4,523.2 635.1,521.9 635.8,520.5 636.4,519.1 637.1,517.9 637.7,520.4 638.4,519.3 639.1,522.4 639.7,521.1 640.4,520.2 641,519.3 641.7,518.5 642.4,517.7 643,520.3 643.7,519.3 644.4,522.2 645,521.4 645.7,520.7 646.3,519.7 647,518.8 647.7,518 648.3,521 649,520.3 649.6,522.8 650.3,521.3 651,520.4 651.6,519.6 652.3,518.4 652.9,516.9 653.6,519.7 654.3,518.7 654.9,521.7 655.6,520.9 656.2,519.7 656.9,518.8 657.6,518 658.2,517 658.9,520.1 659.5,518.4 660.2,521.2 660.9,520.6 661.5,520.1 662.2,519.5 662.8,518.9 663.5,518.4 664.2,521.1 664.8,520.6 665.5,523.9 666.1,523.4 666.8,522.4 667.5,521.8 668.1,521.2 668.8,520.7 669.4,524 670.1,523.5 670.8,526.8 671.4,526.2 672.1,525.5 672.7,524.9 673.4,524.3 674.1,523.3 674.7,526.7 675.4,526.1 676,529.4 676.7,528.8 677.4,528.2 678,527.7 678.7,526.8 679.4,525.8 680,529.2 680.7,528.6 681.3,531.9 682,531.3 682.7,530.7 683.3,530.2 684,529.6 684.6,529 685.3,532.3 686,531.3 686.6,534.6 687.3,534 687.9,533.4 688.6,532.9 689.3,532.3 689.9,531.7 690.6,529.2 691.2,528.6 691.9,531.9 692.6,531.3 693.2,530.7 693.9,530.2 694.5,529.6 695.2,529 695.9,532.3 696.5,531.3 697.2,534.6 697.8,534 698.5,533.4 699.2,532.9 699.8,532.3 700.5,531.7 701.1,529.2 701.8,528.6 702.5,531.9 703.1,531.3 703.8,530.7 704.4,530.2 705.1,529.6 705.8,529 706.4,532.3 707.1,531.3 707.7,534.6 708.4,534 709.1,533.4 709.7,532.9 710.4,532.3 711.1,531.7 711.7,530.2 712.4,529.6 713,529 713.7,532.3 714.4,531.3 715,534.6 715.7,534 716.3,533.4 717,532.9 717.7,532.3 718.3,531.7 719,529.2 719.6,528.6 720.3,531.9 721,531.3 721.6,530.7 722.3,530.2 722.9,529.6 723.6,529 724.3,532.3 724.9,531.3 725.6,535.9 726.2,535.1 " />
</g>

<g fill="none" stroke="#000000" stroke-opacity="1" stroke-width="1" stroke-linecap="square" stroke-linejoin="bevel" transform="matrix(1.00267,0,0,1.00267,0,0)"
font-family="Ubuntu" font-size="11" font-weight="400" font-style="normal" 
>
</g>

<g fill="none" stroke="#000000" stroke-opacity="1" stroke-width="1" stroke-linecap="square" stroke-linejoin="bevel" transform="matrix(1.00267,0,0,1.00267,656.751,48.6297)"
font-family="Ubuntu" font-size="11" font-weight="400" font-style="normal" 
>
</g>

<g fill="none" stroke="#000000" stroke-opacity="1" stroke-width="1" stroke-linecap="square" stroke-linejoin="bevel" transform="matrix(1.00267,0,0,1.00267,656.751,48.6297)"
font-family="Ubuntu" font-size="11" font-weight="400" font-style="normal" 
>
</g>

<g fill="none" stroke="#000000" stroke-opacity="1" stroke-width="1" stroke-linecap="square" stroke-linejoin="bevel" transform="matrix(1.00267,0,0,1.00267,656.751,48.6297)"
font-family="Ubuntu" font-size="11" font-weight="400" font-style="normal" 
>
</g>

<g fill="none" stroke="#000000" stroke-opacity="1" stroke-width="1" stroke-linecap="square" stroke-linejoin="bevel" transform="matrix(1.00267,0,0,1.00267,656.751,48.6297)"
font-family="Ubuntu" font-size="11" font-weight="400" font-style="normal" 
>
</g>

<g fill="none" stroke="#000000" stroke-opacity="1" stroke-width="1" stroke-linecap="square" stroke-linejoin="bevel" transform="matrix(1.00267,0,0,1.00267,656.751,48.6297)"
font-family="Ubuntu" font-size="11" font-weight="400" font-style="normal" 
>
</g>

<g fill="none" stroke="#000000" stroke-opacity="1" stroke-width="1" stroke-linecap="square" stroke-linejoin="bevel" transform="matrix(1.00267,0,0,1.00267,656.751,48.6297)"
font-family="Sans" font-size="9" font-weight="400" font-style="normal" 
>
<text fill="#000000" fill-opacity="1" stroke="none" xml:space="preserve" x="0" y="0" font-family="Sans" font-size="9" font-weight="400" font-style="normal" 
 >old</text>
</g>

<g fill="none" stroke="#000000" stroke-opacity="1" stroke-width="1" stroke-linecap="square" stroke-linejoin="bevel" transform="matrix(1.00267,0,0,1.00267,656.751,48.6297)"
font-family="Ubuntu" font-size="11" font-weight="400" font-style="normal" 
>
</g>

<g fill="none" stroke="#000000" stroke-opacity="1" stroke-width="1" stroke-linecap="square" stroke-linejoin="bevel" transform="matrix(1.00267,0,0,1.00267,0,0)"
font-family="Ubuntu" font-size="11" font-weight="400" font-style="normal" 
>
</g>

<g fill="none" stroke="#009e73" stroke-opacity="1" stroke-width="1" stroke-linecap="round" stroke-linejoin="round" transform="matrix(1.00267,0,0,1.00267,0,0)"
font-family="Ubuntu" font-size="11" font-weight="400" font-style="normal" 
>
<path vector-effect="none" fill-rule="evenodd" d="M678.5,43.5 L712.5,43.5"/>
</g>

<g fill="none" stroke="#000000" stroke-opacity="1" stroke-width="1" stroke-linecap="square" stroke-linejoin="bevel" transform="matrix(1.00267,0,0,1.00267,0,0)"
font-family="Ubuntu" font-size="11" font-weight="400" font-style="normal" 
>
</g>

<g fill="none" stroke="#000000" stroke-opacity="1" stroke-width="1" stroke-linecap="square" stroke-linejoin="bevel" transform="matrix(1.00267,0,0,1.00267,0,0)"
font-family="Ubuntu" font-size="11" font-weight="400" font-style="normal" 
>
</g>

<g fill="none" stroke="#000000" stroke-opacity="1" stroke-width="1" stroke-linecap="square" stroke-linejoin="bevel" transform="matrix(1.00267,0,0,1.00267,0,0)"
font-family="Ubuntu" font-size="11" font-weight="400" font-style="normal" 
>
</g>

<g fill="none" stroke="#000000" stroke-opacity="1" stroke-width="1" stroke-linecap="square" stroke-linejoin="bevel" transform="matrix(1.00267,0,0,1.00267,0,0)"
font-family="Ubuntu" font-size="11" font-weight="400" font-style="normal" 
>
</g>

<g fill="none" stroke="#009e73" stroke-opacity="1" stroke-width="1" stroke-linecap="round" stroke-linejoin="round" transform="matrix(1.00267,0,0,1.00267,0,0)"
font-family="Ubuntu" font-size="11" font-weight="400" font-style="normal" 
>
<polyline fill="none" vector-effect="none" points="66.5,561.9 66.5,561.9 67.2,561.9 67.8,561.6 68.5,561.4 69.1,560.9 69.8,560.9 70.5,560.9 71.1,560.1 71.8,560 72.4,559.4 73.1,558.7 73.8,558.2 74.4,558 75.1,557.4 75.7,557 76.4,556.3 77.1,555.5 77.7,555.5 78.4,554.7 79,554.2 79.7,553.6 80.4,553.5 81,552.7 81.7,551.5 82.3,550.9 83,549.7 83.7,549.6 84.3,548.1 85,547.3 85.7,546.6 86.3,545.7 87,544.3 87.6,543.3 88.3,541.9 89,541.3 89.6,540.1 90.3,538.5 90.9,537.3 91.6,536.2 92.3,535.1 92.9,534.6 93.6,534 94.2,532.1 94.9,531.7 95.6,529.7 96.2,529.3 96.9,529 97.5,528.3 98.2,528.2 98.9,527.6 99.5,527.7 100.2,526.2 100.8,525.8 101.5,526 102.2,525.1 102.8,524.8 103.5,524.6 104.1,524.3 104.8,523.4 105.5,522.8 106.1,522.6 106.8,522.4 107.4,521.3 108.1,520.9 108.8,520.3 109.4,520 110.1,519.9 110.7,518.8 111.4,518.1 112.1,518.1 112.7,517.6 113.4,516.6 114,516.2 114.7,516 115.4,515.4 116,514.7 116.7,513.9 117.4,513.6 118,513 118.7,512.4 119.3,511.3 120,511 120.7,510.5 121.3,509.6 122,508.9 122.6,507.9 123.3,507.3 124,506.8 124.6,506.8 125.3,506.1 125.9,505.2 126.6,504.4 127.3,503.7 127.9,502.4 128.6,501.7 129.2,500.6 129.9,500 130.6,499.5 131.2,498.2 131.9,497.5 132.5,496.7 133.2,496.4 133.9,495.7 134.5,494.6 135.2,494.3 135.8,493.7 136.5,492.6 137.2,492.2 137.8,491.8 138.5,490.5 139.1,489.3 139.8,488.9 140.5,487.8 141.1,486.4 141.8,485.6 142.4,484.6 143.1,483.5 143.8,483 144.4,482.1 145.1,481.2 145.7,480.3 146.4,479.8 147.1,479.3 147.7,478 148.4,476.6 149.1,476.2 149.7,474.2 150.4,473.5 151,472.4 151.7,471.6 152.4,469.8 153,469.5 153.7,467.9 154.3,467 155,465.7 155.7,465 156.3,464.3 157,464.1 157.6,462.4 158.3,461.4 159,460.4 159.6,459.1 160.3,457.4 160.9,456.4 161.6,455.9 162.3,454 162.9,453.7 163.6,452.5 164.2,450.4 164.9,450 165.6,449 166.2,448 166.9,446.3 167.5,445.4 168.2,444.3 168.9,443 169.5,442.5 170.2,441.1 170.8,440.2 171.5,438.2 172.2,437.4 172.8,435.8 173.5,434.7 174.1,434.1 174.8,432.1 175.5,431.5 176.1,430.4 176.8,428.3 177.4,427.1 178.1,426.1 178.8,425.5 179.4,424.7 180.1,424.2 180.7,422.7 181.4,420.3 182.1,418.2 182.7,416.9 183.4,415.6 184.1,414.2 184.7,411.7 185.4,409.1 186,407.8 186.7,403.6 187.4,402 188,398.3 188.7,395.3 189.3,391.8 190,390.2 190.7,387.5 191.3,386 192,385 192.6,382.2 193.3,379.3 194,377 194.6,373.8 195.3,372.2 195.9,368.7 196.6,367.2 197.3,365 197.9,362 198.6,360.3 199.2,358.2 199.9,354.9 200.6,352.8 201.2,351.1 201.9,347 202.5,345.4 203.2,343.5 203.9,341.5 204.5,339.3 205.2,337.7 205.8,335.5 206.5,333.6 207.2,331.6 207.8,330 208.5,327.9 209.1,326.3 209.8,324.1 210.5,321.8 211.1,319.8 211.8,318.4 212.4,316.8 213.1,314.4 213.8,312.3 214.4,310.4 215.1,307.7 215.8,306.8 216.4,305 217.1,304.3 217.7,302.3 218.4,298.5 219.1,296.7 219.7,293.1 220.4,289.9 221,287.9 221.7,286.5 222.4,284.8 223,282.6 223.7,281.7 224.3,278.4 225,276.1 225.7,274 226.3,272.5 227,270.7 227.6,268.8 228.3,266.8 229,265 229.6,262.6 230.3,260.6 230.9,259.3 231.6,257.8 232.3,255.8 232.9,561.9 233.6,560.3 234.2,557.7 234.9,555.7 235.6,552.8 236.2,551.9 236.9,551 237.5,549.4 238.2,547.5 238.9,545.7 239.5,541.6 240.2,539.6 240.8,538.3 241.5,536.9 242.2,534.5 242.8,533.8 243.5,531.2 244.1,531.2 244.8,529.4 245.5,528.1 246.1,527.2 246.8,525.2 247.4,524 248.1,521.6 248.8,519.9 249.4,518.6 250.1,517.1 250.8,514.5 251.4,513.1 252.1,511 252.7,509.2 253.4,507.8 254.1,506.7 254.7,504.2 255.4,502.6 256,501.8 256.7,499.8 257.4,497.3 258,495.1 258.7,493.7 259.3,492.3 260,490.4 260.7,489.2 261.3,489.2 262,487.3 262.6,486.3 263.3,483.9 264,483.6 264.6,481.1 265.3,479.8 265.9,478.2 266.6,477 267.3,475.4 267.9,473.8 268.6,472.1 269.2,470.8 269.9,469.6 270.6,467.5 271.2,466.4 271.9,465.5 272.5,463.5 273.2,462 273.9,460.6 274.5,458.9 275.2,456.7 275.8,454.8 276.5,453.6 277.2,452.4 277.8,451.1 278.5,449.4 279.1,448.5 279.8,446.6 280.5,445.3 281.1,444.4 281.8,442.8 282.5,440.5 283.1,439.6 283.8,437.3 284.4,435.6 285.1,433.8 285.8,432.1 286.4,431.2 287.1,429.5 287.7,428.6 288.4,423.5 289.1,421.6 289.7,418.8 290.4,416.3 291,416.2 291.7,414.3 292.4,412.5 293,409.7 293.7,407.3 294.3,407 295,405.2 295.7,404.9 296.3,403.2 297,401.6 297.6,400.9 298.3,399.6 299,396.6 299.6,395.2 300.3,393.6 300.9,391.2 301.6,390.7 302.3,390.6 302.9,389.6 303.6,389.7 304.2,388 304.9,388.3 305.6,387.6 306.2,387.3 306.9,386.7 307.5,386.2 308.2,385.5 308.9,385.2 309.5,384.8 310.2,384.2 310.8,383.3 311.5,382.1 312.2,381.9 312.8,381.6 313.5,381.2 314.2,380.5 314.8,380.5 315.5,379.8 316.1,378.8 316.8,378.4 317.5,377.9 318.1,377.7 318.8,377.4 319.4,376.9 320.1,376.8 320.8,375.2 321.4,374.4 322.1,374 322.7,373.8 323.4,373.7 324.1,372.5 324.7,372.1 325.4,372.1 326,371.4 326.7,371.4 327.4,370.5 328,370 328.7,369.8 329.3,369 330,368.5 330.7,368.2 331.3,367.9 332,366.9 332.6,366.8 333.3,366.4 334,365.6 334.6,365 335.3,364.4 335.9,364.5 336.6,363.7 337.3,363.4 337.9,363.1 338.6,362.5 339.2,362.2 339.9,362 340.6,361.4 341.2,360.5 341.9,359.9 342.5,359.6 343.2,359.2 343.9,359 344.5,358.5 345.2,358.1 345.8,356.9 346.5,357.2 347.2,356.2 347.8,356.6 348.5,355.8 349.2,354.4 349.8,354.2 350.5,354.5 351.1,354 351.8,353.9 352.5,353.1 353.1,353 353.8,352.6 354.4,350.6 355.1,350.6 355.8,350.2 356.4,349.6 357.1,349.9 357.7,349.7 358.4,348.4 359.1,348 359.7,347.9 360.4,347.4 361,347.5 361.7,346.9 362.4,345.9 363,345.7 363.7,344.7 364.3,344.5 365,344.9 365.7,343.5 366.3,342.5 367,344 367.6,342.9 368.3,342.4 369,341.8 369.6,341.2 370.3,341.7 370.9,340.4 371.6,339.6 372.3,338.9 372.9,339.6 373.6,339.3 374.2,338.3 374.9,338 375.6,337.2 376.2,337 376.9,336.2 377.5,336 378.2,334.8 378.9,334.9 379.5,334.2 380.2,334.2 380.9,333.4 381.5,332.8 382.2,332.6 382.8,332.1 383.5,331.7 384.2,331.6 384.8,330 385.5,330.4 386.1,330.4 386.8,329.8 387.5,329.3 388.1,329 388.8,328.2 389.4,327 390.1,327 390.8,326.7 391.4,327 392.1,325.6 392.7,325.6 393.4,325.1 394.1,324.3 394.7,324.3 395.4,323.3 396,323.8 396.7,322.8 397.4,322.6 398,321.7 398.7,321.1 399.3,321.3 400,320.2 400.7,320.4 401.3,319.2 402,318.8 402.6,317.8 403.3,318.1 404,317.3 404.6,317 405.3,316.4 405.9,316.5 406.6,315.6 407.3,315.8 407.9,314.3 408.6,313.4 409.2,313 409.9,313.1 410.6,312.9 411.2,312.5 411.9,312.3 412.5,311.8 413.2,310.8 413.9,310.4 414.5,310 415.2,309.4 415.9,309.1 416.5,308.2 417.2,308.4 417.8,307.8 418.5,307.3 419.2,307.1 419.8,306.6 420.5,305.8 421.1,304.8 421.8,304.4 422.5,304.1 423.1,303.5 423.8,303.5 424.4,302.9 425.1,302.4 425.8,301.4 426.4,301.6 427.1,300 427.7,299.8 428.4,299.6 429.1,298.6 429.7,299.3 430.4,298.3 431,297.4 431.7,297.3 432.4,297 433,296.3 433.7,296.3 434.3,295.1 435,294.6 435.7,294.6 436.3,294.1 437,293.8 437.6,293.3 438.3,292.7 439,291.8 439.6,291.5 440.3,291.4 440.9,290.2 441.6,290.5 442.3,289.7 442.9,288.4 443.6,288.5 444.2,287.4 444.9,286.8 445.6,286.5 446.2,285.7 446.9,285.5 447.6,284.8 448.2,284.6 448.9,283.8 449.5,283.4 450.2,282.7 450.9,282.4 451.5,282.2 452.2,281.5 452.8,280.5 453.5,280.2 454.2,280.1 454.8,279.3 455.5,278.8 456.1,278.8 456.8,277.6 457.5,277.5 458.1,276.5 458.8,276.2 459.4,276 460.1,275.7 460.8,274.4 461.4,274.6 462.1,274.4 462.7,273.9 463.4,273 464.1,272.7 464.7,271.9 465.4,271.9 466,271 466.7,271.3 467.4,270.4 468,269.6 468.7,269.2 469.3,268.6 470,268 470.7,267.8 471.3,267 472,267.2 472.6,266.6 473.3,266.7 474,266 474.6,265.4 475.3,265.3 475.9,264.1 476.6,263.3 477.3,262.6 477.9,262.1 478.6,262.6 479.3,262.5 479.9,261.8 480.6,261.4 481.2,260.6 481.9,260.3 482.6,259.8 483.2,259.1 483.9,258.8 484.5,258.6 485.2,258.3 485.9,257.6 486.5,257.3 487.2,256.7 487.8,256.3 488.5,255.8 489.2,255.2 489.8,254.1 490.5,254.5 491.1,253.9 491.8,253.5 492.5,252.8 493.1,252.7 493.8,252.5 494.4,252.1 495.1,250.9 495.8,250.5 496.4,250.5 497.1,250.1 497.7,249.2 498.4,248.8 499.1,248.6 499.7,248.2 500.4,247.8 501,246.9 501.7,247 502.4,246.6 503,245.9 503.7,246 504.3,244.9 505,244.9 505.7,244.6 506.3,243.6 507,242.8 507.6,243.2 508.3,241.8 509,242.1 509.6,241.3 510.3,241.3 510.9,240.1 511.6,240.2 512.3,239.5 512.9,238.9 513.6,238.6 514.3,237.9 514.9,237.7 515.6,236.4 516.2,236.3 516.9,235.9 517.6,235.8 518.2,235.3 518.9,234.6 519.5,233.9 520.2,233.3 520.9,233.8 521.5,233.5 522.2,232 522.8,231.4 523.5,231.6 524.2,230.9 524.8,230.5 525.5,230.3 526.1,229.7 526.8,229.4 527.5,228.7 528.1,228.2 528.8,227.4 529.4,227.5 530.1,227.3 530.8,226.8 531.4,226 532.1,225.4 532.7,225.5 533.4,225 534.1,224 534.7,223.5 535.4,224 536,223.3 536.7,222.7 537.4,222.2 538,221.9 538.7,221.2 539.3,221.1 540,220.1 540.7,219.6 541.3,219.9 542,219 542.6,218.7 543.3,218.1 544,217.5 544.6,217.2 545.3,217.4 546,216.3 546.6,216.4 547.3,216.2 547.9,214.7 548.6,215.1 549.3,213.9 549.9,213.3 550.6,212.7 551.2,213 551.9,212.1 552.6,211.9 553.2,211.8 553.9,210.5 554.5,209.7 555.2,209.7 555.9,209.1 556.5,208.5 557.2,207.3 557.8,207.7 558.5,207 559.2,206.1 559.8,206.1 560.5,205.3 561.1,204.4 561.8,203.8 562.5,203.3 563.1,203.3 563.8,203 564.4,201.8 565.1,200.3 565.8,200.5 566.4,199.4 567.1,198.7 567.7,198.3 568.4,198 569.1,197.7 569.7,196.6 570.4,196.1 571,195.6 571.7,195.3 572.4,194.1 573,193.6 573.7,193.2 574.3,193.2 575,193.1 575.7,191.7 576.3,191.3 577,191.2 577.6,190.6 578.3,190 579,189.7 579.6,188.8 580.3,189.1 581,188.1 581.6,187.3 582.3,186.8 582.9,186.4 583.6,186.2 584.3,186.3 584.9,185 585.6,184.7 586.2,184.5 586.9,184.1 587.6,182.9 588.2,182.7 588.9,182.7 589.5,181.8 590.2,181.3 590.9,180.7 591.5,180.8 592.2,180.3 592.8,179.5 593.5,179.6 594.2,179 594.8,178.2 595.5,177.7 596.1,177.1 596.8,176.6 597.5,176.1 598.1,175.4 598.8,175.4 599.4,175 600.1,175 600.8,174.4 601.4,172.7 602.1,172.6 602.7,172 603.4,171.7 604.1,170.9 604.7,169.9 605.4,170.4 606,169.7 606.7,169.2 607.4,168.5 608,168.8 608.7,167.7 609.3,167.8 610,166.3 610.7,165.7 611.3,165.4 612,164.6 612.7,165.1 613.3,164.5 614,163.9 614.6,163.7 615.3,163.4 616,162.8 616.6,162.2 617.3,161.5 617.9,161 618.6,160.2 619.3,159.5 619.9,159.6 620.6,159.1 621.2,158.8 621.9,157.9 622.6,157.8 623.2,156.9 623.9,156.9 624.5,156.7 625.2,156.2 625.9,154.9 626.5,155 627.2,154.6 627.8,154.2 628.5,154 629.2,153 629.8,152.3 630.5,152.1 631.1,151.4 631.8,150.4 632.5,150.6 633.1,150.3 633.8,149.8 634.4,149.2 635.1,148.8 635.8,148.1 636.4,148.2 637.1,146.9 637.7,146.9 638.4,146.4 639.1,145.5 639.7,145.5 640.4,144.6 641,145.1 641.7,144.3 642.4,143.7 643,143.7 643.7,142.5 644.4,142.2 645,141.2 645.7,140.8 646.3,141.2 647,140.5 647.7,140.1 648.3,140.1 649,139.1 649.6,138.2 650.3,138.1 651,137.3 651.6,136.7 652.3,137.2 652.9,136.8 653.6,136 654.3,135.2 654.9,134.6 655.6,133.9 656.2,133.6 656.9,133 657.6,133.5 658.2,132.5 658.9,132.3 659.5,132.3 660.2,131 660.9,130.9 661.5,130.2 662.2,129.9 662.8,129 663.5,128.9 664.2,128.8 664.8,128.1 665.5,127.6 666.1,126.9 666.8,126.7 667.5,126.2 668.1,126 668.8,125.8 669.4,124.4 670.1,124.6 670.8,123.9 671.4,124 672.1,123.4 672.7,122.9 673.4,122.7 674.1,120.8 674.7,121.3 675.4,120.9 676,120.6 676.7,119.6 677.4,120 678,119.3 678.7,118.9 679.4,118 680,117.8 680.7,117.6 681.3,116.5 682,115.8 682.7,115.7 683.3,115.3 684,115.1 684.6,114.2 685.3,114 686,113.4 686.6,113.2 687.3,112.1 687.9,112.2 688.6,111.6 689.3,110.9 689.9,110.6 690.6,110.5 691.2,109.1 691.9,109.2 692.6,109.1 693.2,109.2 693.9,107.9 694.5,107.4 695.2,106.9 695.9,106.8 696.5,106.3 697.2,105.9 697.8,105.3 698.5,105.3 699.2,104.6 699.8,103.9 700.5,103.4 701.1,102.8 701.8,102.7 702.5,102.5 703.1,102 703.8,101.8 704.4,101.2 705.1,100.2 705.8,100 706.4,99.7 707.1,98.6 707.7,98 708.4,98.3 709.1,97.5 709.7,97 710.4,96.6 711.1,96 711.7,95.5 712.4,94.7 713,94 713.7,94.2 714.4,93.6 715,93.7 715.7,92.7 716.3,92.7 717,92.1 717.7,91.7 718.3,90.8 719,90.3 719.6,89.8 720.3,90.1 721,89 721.6,88.4 722.3,88.6 722.9,88.1 723.6,87.5 724.3,87.1 724.9,86.6 725.6,86.4 726.2,85.7 " />
</g>

<g fill="none" stroke="#000000" stroke-opacity="1" stroke-width="1" stroke-linecap="square" stroke-linejoin="bevel" transform="matrix(1.00267,0,0,1.00267,0,0)"
font-family="Ubuntu" font-size="11" font-weight="400" font-style="normal" 
>
</g>

<g fill="none" stroke="#000000" stroke-opacity="1" stroke-width="1" stroke-linecap="square" stroke-linejoin="bevel" transform="matrix(1.00267,0,0,1.00267,0,0)"
font-family="Ubuntu" font-size="11" font-weight="400" font-style="normal" 
>
</g>

<g fill="none" stroke="#000000" stroke-opacity="1" stroke-width="1" stroke-linecap="round" stroke-linejoin="round" transform="matrix(1.00267,0,0,1.00267,0,0)"
font-family="Ubuntu" font-size="11" font-weight="400" font-style="normal" 
>
<polyline fill="none" vector-effect="none" points="66.5,15.5 66.5,562.5 726.5,562.5 726.5,15.5 66.5,15.5 " />
</g>

<g fill="none" stroke="#000000" stroke-opacity="1" stroke-width="1" stroke-linecap="square" stroke-linejoin="bevel" transform="matrix(1.00267,0,0,1.00267,0,0)"
font-family="Ubuntu" font-size="11" font-weight="400" font-style="normal" 
>
</g>

<g fill="none" stroke="#000000" stroke-opacity="1" stroke-width="1" stroke-linecap="square" stroke-linejoin="bevel" transform="matrix(1,0,0,1,0,0)"
font-family="Ubuntu" font-size="11" font-weight="400" font-style="normal" 
>
</g>
</g>
</svg>
